<svg width="265" height="260" viewBox="0 0 265 260" fill="none" xmlns="http://www.w3.org/2000/svg">
<rect width="265" height="260" rx="20" fill="url(#paint0_linear_485_8)"/>
<g filter="url(#filter0_d_485_8)">
<rect x="34" y="33" width="198" height="194" rx="20" fill="#A78BFA"/>
</g>
<g filter="url(#filter1_d_485_8)">
<path d="M129.681 81.0085C129.889 81.0085 130.098 81.0084 130.313 81.0083C131.002 81.0087 131.692 81.0127 132.381 81.0168C132.859 81.0178 133.337 81.0186 133.815 81.0191C135.074 81.0211 136.332 81.0262 137.59 81.032C138.874 81.0374 140.158 81.0398 141.442 81.0424C143.787 81.0476 146.132 81.0558 148.477 81.0657C148.766 81.067 149 81.3016 149 81.5906C149 81.6589 149 81.7274 149 81.7962C149 81.9726 148.859 82.1156 148.683 82.1156C148.559 82.1156 148.445 82.1865 148.392 82.2979C148.348 82.3912 148.303 82.4851 148.258 82.5807C147.978 83.1236 147.675 83.6031 147.323 84.1013C147.199 84.2785 147.074 84.4557 146.946 84.6383C146.745 84.9209 146.745 84.9209 146.541 85.2092C146.401 85.4067 146.262 85.6042 146.118 85.8076C145.108 87.2346 144.081 88.6484 143.046 90.0573C141.994 91.4927 140.972 92.9479 139.952 94.4062C139.052 95.6928 138.137 96.968 137.213 98.2373C136.779 98.8381 136.357 99.4449 135.937 100.055C134.891 101.566 133.796 103.04 132.706 104.519C131.668 105.931 130.651 107.357 129.65 108.796C128.733 110.112 127.799 111.408 126.816 112.675C125.47 114.412 124.203 116.198 122.939 117.995C122.528 118.579 122.115 119.163 121.702 119.746C121.597 119.894 121.492 120.042 121.384 120.194C120.293 121.728 119.177 123.243 118.056 124.755C117.767 125.146 117.482 125.539 117.201 125.936C116.847 126.416 116.476 126.884 116.091 127.34C114.152 129.787 114.006 131.771 114.049 134.828C114.047 135.301 114.044 135.773 114.04 136.246C114.033 137.519 114.04 138.792 114.049 140.065C114.056 141.399 114.05 142.733 114.046 144.067C114.039 146.589 114.045 149.111 114.054 151.633C114.065 154.506 114.062 157.379 114.058 160.252C114.053 164.094 114.055 167.935 114.062 171.777C114.069 175.196 111.307 177.977 107.888 177.982C106.929 177.983 105.971 177.985 105.013 177.988C104.089 177.991 103.164 177.993 102.24 177.993C101.887 177.994 101.534 177.995 101.181 177.996C100.687 177.998 100.194 177.998 99.7003 177.998C99.2784 177.999 99.2784 177.999 98.848 178C98.0713 177.963 97.5863 177.249 97.5128 176.475C97.2914 174.142 97.3729 171.758 97.3911 169.427C97.3933 169.007 97.3954 168.587 97.3973 168.167C97.4016 167.272 97.4067 166.376 97.4123 165.481C97.4209 164.063 97.4262 162.645 97.4308 161.227C97.4325 160.739 97.4341 160.252 97.4357 159.764C97.4369 159.398 97.437 159.398 97.4382 159.025C97.4494 155.73 97.463 152.435 97.484 149.14C97.4982 146.908 97.5077 144.677 97.512 142.445C97.5144 141.267 97.5192 140.089 97.5298 138.911C97.5397 137.805 97.5435 136.699 97.5426 135.592C97.5434 135.188 97.5464 134.784 97.5518 134.379C97.5809 132.114 97.4858 130.341 96.097 128.471C95.9408 128.235 95.7845 128 95.6236 127.758C95.4734 127.555 95.3233 127.353 95.1686 127.145C94.9912 126.904 94.8138 126.663 94.6311 126.415C94.1707 125.801 93.7091 125.188 93.2466 124.576C91.9143 122.809 90.6301 121.05 89.4719 119.16C88.9251 118.307 88.3056 117.526 87.6761 116.734C87.0918 115.974 86.5749 115.176 86.0514 114.373C85.4412 113.457 84.7744 112.586 84.1091 111.71C81.9798 108.885 79.9191 106.018 77.9197 103.1C77.1667 102.001 76.3993 100.921 75.5844 99.867C75.2485 99.4005 75.2485 99.4005 74.9217 98.8348C74.2636 97.7591 73.507 96.7623 72.7564 95.7504C70.7722 93.0599 68.8264 90.3458 66.9274 87.5938C66.4657 86.9399 65.9963 86.2933 65.5226 85.6481C65.3678 85.4361 65.2131 85.2242 65.0536 85.0059C64.7412 84.5786 64.4273 84.1525 64.1118 83.7276C63.9683 83.5309 63.8248 83.3341 63.677 83.1314C63.5466 82.9547 63.4163 82.778 63.282 82.5959C62.9092 81.961 63.59 81.3194 64.3262 81.3074C66.6388 81.2697 68.9514 81.2404 71.2643 81.2213C72.5437 81.2104 73.8227 81.1956 75.102 81.1718C76.3372 81.149 77.5721 81.1365 78.8076 81.1311C79.2782 81.1272 79.7488 81.1197 80.2192 81.1084C82.4689 81.0564 83.3466 81.0361 83.9497 81.2014C84.7558 81.4224 85.3627 82.0802 85.8163 82.7824C86.0834 83.1959 86.343 83.6223 86.6397 84.0151C86.659 84.0407 86.6784 84.0663 86.6978 84.092C86.8918 84.3777 86.8918 84.3777 87.0898 84.669C87.2406 84.8898 87.3914 85.1106 87.5469 85.3381C88.0446 86.0836 88.5363 86.833 89.028 87.5826C89.9447 88.9743 90.9204 90.3016 91.9324 91.6245C92.4108 92.2779 92.8177 92.9426 93.2303 93.6389C93.5676 94.117 93.9098 94.5916 94.2564 95.0629C94.9827 96.0576 95.6766 97.0646 96.3576 98.0911C96.8521 98.7816 97.3516 99.4684 97.851 100.156C102.326 106.332 102.326 106.332 104.043 109.071C104.15 109.241 104.257 109.411 104.367 109.586C104.573 109.916 104.777 110.247 104.979 110.579C105.172 110.889 105.377 111.191 105.586 111.491C105.682 111.628 105.837 111.71 106.005 111.71C106.165 111.71 106.318 111.636 106.414 111.508C107.124 110.563 107.715 109.605 108.291 108.563C108.836 107.664 109.477 106.834 110.098 105.989C110.755 105.073 111.376 104.14 111.994 103.198C112.906 101.81 113.85 100.455 114.832 99.1151C116.005 97.4886 117.121 95.8214 118.248 94.1627C118.824 93.3169 119.399 92.4712 119.975 91.6256C120.119 91.414 120.263 91.2023 120.411 90.9843C121.399 89.5329 122.392 88.0849 123.391 86.6414C123.843 85.9837 124.291 85.3236 124.735 84.6608C124.864 84.4693 124.993 84.2778 125.126 84.0805C125.379 83.7059 125.63 83.3305 125.88 82.9543C125.995 82.7845 126.109 82.6148 126.228 82.4399C126.329 82.2887 126.43 82.1376 126.534 81.9819C127.417 80.8874 128.404 80.9963 129.681 81.0085Z" fill="#F1F1F1"/>
</g>
<g filter="url(#filter2_d_485_8)">
<path d="M191.547 81.0106C193.902 80.9994 196.257 80.9977 198.612 81.0026C200.422 81.0063 201.914 82.637 201.139 84.273C201.018 84.5326 200.897 84.7922 200.773 85.0597C200.644 85.3301 200.516 85.6005 200.384 85.8791C199.487 87.808 198.63 89.7198 197.901 91.7199C197.558 92.6281 197.171 93.514 196.779 94.4015C195.976 96.222 195.242 98.0666 194.516 99.9198C193.587 102.289 192.607 104.625 191.568 106.947C191.232 107.7 190.917 108.457 190.621 109.226C189.914 111.055 189.095 112.836 188.302 114.628C187.887 115.569 187.475 116.511 187.065 117.454C186.927 117.77 186.79 118.085 186.648 118.409C186.239 119.365 185.859 120.331 185.478 121.298C184.92 122.705 184.342 124.103 183.767 125.503C183.631 125.835 183.495 126.166 183.359 126.498C183.148 127.012 182.937 127.527 182.726 128.042C182.238 129.23 181.752 130.418 181.266 131.606C179.044 137.039 179.044 137.039 177.916 139.724C177.137 141.58 176.391 143.45 175.653 145.324C173.926 149.705 172.124 154.053 170.276 158.384C168.896 161.629 167.586 164.904 166.289 168.184C166.085 168.7 165.88 169.216 165.675 169.732C165.559 170.022 165.444 170.313 165.324 170.613C165.259 170.774 165.195 170.934 165.128 171.1C164.746 172.052 164.391 173.009 164.062 173.982C163.986 174.195 163.911 174.409 163.834 174.629C163.688 175.046 163.548 175.465 163.414 175.886C163.346 176.077 163.278 176.267 163.208 176.463C163.095 176.802 162.936 177.137 162.649 177.351C162.147 177.726 161.544 177.82 160.879 177.927C160.027 177.996 159.179 178.001 158.324 177.997C157.964 177.998 157.964 177.998 157.595 177.998C157.089 177.999 156.583 177.998 156.077 177.996C155.304 177.993 154.532 177.995 153.76 177.999C153.266 177.998 152.773 177.998 152.279 177.997C152.05 177.998 151.82 177.999 151.584 178C150.822 177.994 150.119 177.979 149.428 177.83C148.595 177.652 147.904 177.065 147.592 176.272C147.487 176.014 147.383 175.755 147.275 175.489C147.156 175.173 147.037 174.857 146.914 174.532C146.759 174.134 146.605 173.737 146.45 173.339C146.004 172.186 145.567 171.029 145.134 169.871C144.863 169.15 144.592 168.43 144.32 167.71C143.426 165.335 142.548 162.955 141.727 160.553C141.288 159.275 140.787 158.032 140.261 156.788C139.659 155.324 139.124 153.834 138.579 152.348C138.25 151.453 137.919 150.56 137.587 149.666C137.522 149.492 137.458 149.317 137.391 149.137C136.641 147.12 135.876 145.108 135.097 143.102C134.406 141.32 133.72 139.539 133.094 137.732C132.407 135.76 131.63 133.826 130.856 131.888C130.358 130.64 129.877 129.386 129.403 128.129C129.139 127.435 128.87 126.744 128.597 126.053C128.474 125.739 128.474 125.739 128.348 125.418C128.186 125.006 128.023 124.595 127.859 124.185C127.635 123.612 127.471 123.192 127.349 122.863C126.911 121.675 127.269 120.361 128.051 119.365C128.223 119.133 128.223 119.133 128.4 118.896C128.654 118.555 128.91 118.215 129.168 117.876C129.925 116.876 130.658 115.857 131.397 114.842C131.707 114.418 132.017 113.994 132.327 113.57C133.097 112.514 133.859 111.452 134.613 110.385C134.717 110.239 134.82 110.093 134.927 109.943C135.403 109.269 135.867 108.59 136.317 107.898C136.475 107.658 136.633 107.417 136.795 107.169C136.91 106.987 137.025 106.805 137.143 106.619C137.179 106.563 137.22 106.509 137.266 106.46C137.285 106.438 137.305 106.416 137.325 106.395C137.502 106.201 137.749 106.091 138.012 106.091C138.389 106.091 138.734 106.317 138.875 106.667C139.564 108.367 140.164 110.097 140.755 111.835C141.412 113.757 142.12 115.659 142.831 117.561C143.158 118.439 143.484 119.318 143.81 120.197C143.94 120.546 144.069 120.894 144.198 121.242C144.457 121.939 144.716 122.635 144.974 123.332C145.038 123.504 145.102 123.677 145.168 123.855C145.297 124.202 145.426 124.549 145.555 124.897C145.884 125.782 146.213 126.668 146.544 127.553C147.3 129.576 148.031 131.604 148.724 133.65C149.348 135.476 149.984 137.295 150.663 139.101C151.308 140.818 151.934 142.541 152.56 144.265C152.684 144.605 152.807 144.945 152.931 145.285C153.091 145.727 153.252 146.17 153.412 146.613C154.193 148.775 157.04 148.912 157.889 146.777C158.131 146.171 158.373 145.566 158.615 144.96C158.793 144.515 158.793 144.515 158.975 144.061C159.417 142.964 159.869 141.871 160.321 140.778C160.764 139.701 161.195 138.619 161.623 137.536C161.711 137.313 161.799 137.09 161.89 136.861C162.468 135.397 163.034 133.929 163.595 132.458C164.289 130.642 165.025 128.847 165.779 127.056C166.685 124.896 167.545 122.718 168.402 120.537C168.748 119.656 169.097 118.776 169.446 117.895C169.57 117.582 169.694 117.269 169.822 116.946C170.933 114.14 170.933 114.14 171.317 113.173C171.635 112.371 171.949 111.568 172.263 110.765C172.353 110.534 172.443 110.303 172.537 110.066C172.713 109.617 172.888 109.167 173.063 108.717C173.527 107.534 174.036 106.396 174.61 105.264C174.947 104.577 175.212 103.87 175.475 103.152C176.316 100.905 177.232 98.6976 178.207 96.5059C178.941 94.8555 179.64 93.2184 180.226 91.5076C180.765 90.0595 181.386 88.6458 181.996 87.2272C182.484 86.0908 182.958 84.9529 183.404 83.7985C183.533 83.4789 183.533 83.4789 183.665 83.1528C184.03 82.2515 184.508 81.2341 185.473 81.1148C185.74 81.0819 186.035 81.0794 186.384 81.0673C186.63 81.0658 186.876 81.0644 187.129 81.0628C187.389 81.0564 187.648 81.0501 187.915 81.0435C189.126 81.0193 190.336 81.0165 191.547 81.0106Z" fill="#EFEFEF"/>
</g>
<defs>
<filter id="filter0_d_485_8" x="26" y="33" width="206" height="202" filterUnits="userSpaceOnUse" color-interpolation-filters="sRGB">
<feFlood flood-opacity="0" result="BackgroundImageFix"/>
<feColorMatrix in="SourceAlpha" type="matrix" values="0 0 0 0 0 0 0 0 0 0 0 0 0 0 0 0 0 0 127 0" result="hardAlpha"/>
<feOffset dx="-4" dy="4"/>
<feGaussianBlur stdDeviation="2"/>
<feComposite in2="hardAlpha" operator="out"/>
<feColorMatrix type="matrix" values="0 0 0 0 0 0 0 0 0 0 0 0 0 0 0 0 0 0 0.25 0"/>
<feBlend mode="normal" in2="BackgroundImageFix" result="effect1_dropShadow_485_8"/>
<feBlend mode="normal" in="SourceGraphic" in2="effect1_dropShadow_485_8" result="shape"/>
</filter>
<filter id="filter1_d_485_8" x="55.1768" y="81" width="93.8232" height="105" filterUnits="userSpaceOnUse" color-interpolation-filters="sRGB">
<feFlood flood-opacity="0" result="BackgroundImageFix"/>
<feColorMatrix in="SourceAlpha" type="matrix" values="0 0 0 0 0 0 0 0 0 0 0 0 0 0 0 0 0 0 127 0" result="hardAlpha"/>
<feOffset dx="-4" dy="4"/>
<feGaussianBlur stdDeviation="2"/>
<feComposite in2="hardAlpha" operator="out"/>
<feColorMatrix type="matrix" values="0 0 0 0 0 0 0 0 0 0 0 0 0 0 0 0 0 0 0.25 0"/>
<feBlend mode="normal" in2="BackgroundImageFix" result="effect1_dropShadow_485_8"/>
<feBlend mode="normal" in="SourceGraphic" in2="effect1_dropShadow_485_8" result="shape"/>
</filter>
<filter id="filter2_d_485_8" x="119.16" y="81" width="82.189" height="105" filterUnits="userSpaceOnUse" color-interpolation-filters="sRGB">
<feFlood flood-opacity="0" result="BackgroundImageFix"/>
<feColorMatrix in="SourceAlpha" type="matrix" values="0 0 0 0 0 0 0 0 0 0 0 0 0 0 0 0 0 0 127 0" result="hardAlpha"/>
<feOffset dx="-4" dy="4"/>
<feGaussianBlur stdDeviation="2"/>
<feComposite in2="hardAlpha" operator="out"/>
<feColorMatrix type="matrix" values="0 0 0 0 0 0 0 0 0 0 0 0 0 0 0 0 0 0 0.25 0"/>
<feBlend mode="normal" in2="BackgroundImageFix" result="effect1_dropShadow_485_8"/>
<feBlend mode="normal" in="SourceGraphic" in2="effect1_dropShadow_485_8" result="shape"/>
</filter>
<linearGradient id="paint0_linear_485_8" x1="87" y1="183" x2="265" y2="-1.18446e-05" gradientUnits="userSpaceOnUse">
<stop stop-color="#A78BFA"/>
<stop offset="1" stop-color="white"/>
</linearGradient>
</defs>
</svg>
