<svg width="265" height="260" viewBox="0 0 265 260" fill="none" xmlns="http://www.w3.org/2000/svg">
<rect opacity="0.3" width="265" height="260" rx="20" fill="url(#paint0_linear_485_8)"/>
<g filter="url(#filter0_d_485_8)">
<rect x="22" y="21" width="222" height="218" rx="20" fill="#A78BFA"/>
</g>
<g filter="url(#filter1_d_485_8)">
<path d="M129.434 75.0096C129.667 75.0095 129.9 75.0094 130.14 75.0093C130.909 75.0097 131.679 75.0143 132.449 75.0189C132.982 75.02 133.516 75.0209 134.05 75.0215C135.454 75.0237 136.859 75.0295 138.263 75.036C139.697 75.042 141.13 75.0447 142.563 75.0477C145.18 75.0535 147.796 75.0626 150.413 75.0739C150.737 75.0752 151 75.3389 151 75.6637C151 75.7414 151 75.8192 151 75.8975C151 76.0941 150.843 76.2536 150.646 76.2536C150.508 76.2536 150.381 76.3331 150.322 76.4577C150.272 76.5628 150.222 76.6686 150.172 76.7763C149.859 77.3863 149.521 77.9251 149.128 78.4849C148.989 78.6841 148.85 78.8832 148.707 79.0884C148.483 79.406 148.483 79.406 148.255 79.7299C148.099 79.9518 147.943 80.1738 147.783 80.4024C146.655 82.0059 145.509 83.5946 144.354 85.1778C143.18 86.7908 142.038 88.4259 140.9 90.0647C139.895 91.5105 138.874 92.9434 137.842 94.3698C137.358 95.0449 136.887 95.7268 136.418 96.4126C135.251 98.1104 134.028 99.7664 132.811 101.428C131.652 103.016 130.518 104.618 129.4 106.235C128.377 107.714 127.333 109.169 126.236 110.594C124.734 112.545 123.32 114.552 121.909 116.572C121.449 117.228 120.989 117.884 120.527 118.54C120.41 118.706 120.294 118.872 120.173 119.043C118.955 120.766 117.709 122.469 116.458 124.168C116.136 124.607 115.818 125.05 115.504 125.495C115.109 126.035 114.694 126.561 114.264 127.073C112.1 129.822 111.937 132.052 111.985 135.487C111.983 136.018 111.98 136.549 111.975 137.081C111.967 138.511 111.974 139.941 111.985 141.372C111.993 142.871 111.986 144.37 111.981 145.87C111.974 148.703 111.98 151.537 111.991 154.371C112.003 157.599 111.999 160.828 111.995 164.056C111.989 168.389 111.991 172.721 112 177.054C112.007 180.87 108.924 183.975 105.107 183.98C104.038 183.981 102.968 183.983 101.898 183.987C100.867 183.99 99.8348 183.992 98.803 183.993C98.4089 183.993 98.0148 183.994 97.6206 183.996C97.0697 183.998 96.5187 183.998 95.9678 183.998C95.4968 183.999 95.4968 183.999 95.0164 184C94.1486 183.959 93.6085 183.159 93.5267 182.295C93.2786 179.67 93.3697 176.988 93.3901 174.366C93.3925 173.894 93.3948 173.423 93.397 172.951C93.4018 171.944 93.4075 170.938 93.4137 169.932C93.4233 168.339 93.4292 166.745 93.4344 165.152C93.4362 164.604 93.4381 164.056 93.4399 163.508C93.4412 163.097 93.4413 163.097 93.4426 162.677C93.4551 158.975 93.4703 155.272 93.4937 151.57C93.5096 149.062 93.5203 146.554 93.525 144.046C93.5277 142.723 93.5331 141.399 93.5449 140.075C93.5559 138.832 93.5601 137.589 93.5592 136.346C93.5601 135.892 93.5634 135.437 93.5695 134.983C93.602 132.437 93.4958 130.446 91.9455 128.343C91.7711 128.079 91.5967 127.815 91.417 127.542C91.2494 127.315 91.0818 127.088 90.9091 126.853C90.7111 126.583 90.5131 126.313 90.3091 126.034C89.7952 125.344 89.28 124.655 88.7636 123.967C87.2764 121.981 85.8429 120.005 84.55 117.881C83.9396 116.923 83.2481 116.044 82.5455 115.154C81.8931 114.3 81.3161 113.404 80.7318 112.502C80.0507 111.472 79.3063 110.494 78.5636 109.509C76.1868 106.335 73.8864 103.113 71.6545 99.8338C70.814 98.5988 69.9573 97.385 69.0477 96.2011C68.6727 95.6769 68.6727 95.6769 68.308 95.0412C67.5733 93.8324 66.7288 92.7123 65.8909 91.5752C63.6759 88.5519 61.5039 85.502 59.3841 82.4096C58.8687 81.6747 58.3447 80.9481 57.8159 80.2231C57.6432 79.9849 57.4704 79.7468 57.2924 79.5014C56.9437 79.0213 56.5933 78.5425 56.2411 78.065C56.0809 77.844 55.9207 77.6229 55.7557 77.3951C55.6102 77.1965 55.4647 76.998 55.3148 76.7934C54.8982 76.0791 55.6626 75.3588 56.4894 75.3453C59.0679 75.303 61.6464 75.2702 64.2252 75.2487C65.6534 75.2364 67.0812 75.2198 68.5092 75.1931C69.888 75.1675 71.2666 75.1534 72.6457 75.1473C73.171 75.143 73.6963 75.1345 74.2215 75.1218C76.7254 75.0635 77.7068 75.0407 78.3798 75.2247C79.2851 75.4722 79.9636 76.2145 80.4704 77.0045C80.7677 77.468 81.0569 77.9463 81.3875 78.3868C81.4094 78.4159 81.4314 78.4452 81.4534 78.4746C81.67 78.7955 81.67 78.7955 81.8909 79.1229C82.0593 79.371 82.2277 79.6191 82.4011 79.8748C82.9568 80.7125 83.5056 81.5546 84.0545 82.3969C85.0778 83.9608 86.1669 85.4523 87.2966 86.9389C87.8306 87.6731 88.2848 88.4201 88.7455 89.2024C89.1219 89.7397 89.504 90.273 89.8909 90.8027C90.7016 91.9204 91.4762 93.0519 92.2364 94.2054C92.7884 94.9814 93.346 95.7532 93.9034 96.5253C98.8987 103.466 98.8987 103.466 100.816 106.544C100.935 106.735 101.054 106.925 101.177 107.122C101.407 107.493 101.634 107.865 101.86 108.238C102.076 108.587 102.305 108.927 102.538 109.264C102.645 109.418 102.818 109.509 103.005 109.509C103.184 109.509 103.355 109.426 103.462 109.283C104.255 108.221 104.915 107.145 105.558 105.973C106.165 104.962 106.881 104.03 107.575 103.08C108.307 102.052 109.001 101.002 109.691 99.9441C110.709 98.3841 111.763 96.8617 112.859 95.3561C114.169 93.5284 115.414 91.655 116.673 89.791C117.315 88.8406 117.958 87.8903 118.6 86.9401C118.761 86.7023 118.921 86.4645 119.087 86.2195C120.19 84.5885 121.298 82.9613 122.414 81.3393C122.918 80.6002 123.417 79.8585 123.914 79.1137C124.058 78.8985 124.202 78.6833 124.35 78.4616C124.632 78.0406 124.913 77.6188 125.192 77.196C125.32 77.0053 125.448 76.8145 125.58 76.618C125.692 76.4482 125.805 76.2783 125.921 76.1033C126.907 74.8735 128.009 74.9959 129.434 75.0096Z" fill="#F1F1F1"/>
</g>
<g filter="url(#filter2_d_485_8)">
<path d="M199.292 75.0119C201.926 74.9994 204.56 74.9974 207.194 75.0029C209.227 75.0071 210.904 76.8386 210.036 78.6779C209.901 78.9696 209.765 79.2614 209.626 79.562C209.482 79.8658 209.338 80.1696 209.19 80.4827C208.185 82.6502 207.225 84.7985 206.41 87.046C206.025 88.0666 205.592 89.0622 205.153 90.0594C204.253 92.1052 203.431 94.178 202.618 96.2604C201.578 98.9229 200.48 101.548 199.316 104.157C198.94 105.003 198.587 105.853 198.255 106.718C197.464 108.773 196.547 110.775 195.658 112.788C195.193 113.845 194.732 114.904 194.272 115.964C194.119 116.318 193.965 116.673 193.806 117.037C193.348 118.111 192.922 119.197 192.496 120.283C191.871 121.864 191.223 123.436 190.579 125.009C190.427 125.381 190.275 125.754 190.122 126.126C189.886 126.705 189.649 127.283 189.413 127.862C188.867 129.196 188.322 130.531 187.778 131.867C185.289 137.972 185.289 137.972 184.026 140.988C183.153 143.075 182.318 145.175 181.491 147.281C179.558 152.205 177.539 157.09 175.469 161.957C173.924 165.604 172.456 169.284 171.004 172.97C170.775 173.55 170.546 174.129 170.316 174.709C170.186 175.036 170.057 175.363 169.923 175.699C169.851 175.88 169.778 176.06 169.703 176.246C169.275 177.317 168.878 178.392 168.509 179.484C168.425 179.724 168.341 179.965 168.254 180.212C168.091 180.681 167.933 181.151 167.783 181.625C167.707 181.839 167.631 182.053 167.553 182.273C167.426 182.654 167.248 183.031 166.926 183.272C166.364 183.692 165.689 183.798 164.945 183.918C163.99 183.995 163.041 184.001 162.083 183.996C161.679 183.997 161.679 183.997 161.267 183.998C160.7 183.999 160.133 183.997 159.566 183.995C158.701 183.992 157.836 183.995 156.971 183.999C156.418 183.998 155.865 183.998 155.313 183.996C155.056 183.998 154.798 183.999 154.534 184C153.681 183.994 152.896 183.976 152.122 183.81C151.187 183.609 150.412 182.949 150.063 182.059C149.946 181.768 149.829 181.478 149.708 181.178C149.575 180.823 149.441 180.468 149.303 180.102C149.131 179.656 148.958 179.209 148.784 178.763C148.285 177.467 147.795 176.167 147.31 174.866C147.007 174.056 146.703 173.246 146.398 172.437C145.397 169.768 144.414 167.094 143.494 164.395C143.002 162.958 142.442 161.562 141.853 160.164C141.178 158.519 140.578 156.844 139.968 155.174C139.6 154.169 139.229 153.165 138.858 152.161C138.785 151.965 138.713 151.769 138.638 151.566C137.798 149.299 136.941 147.039 136.069 144.785C135.295 142.782 134.526 140.781 133.825 138.75C133.056 136.534 132.186 134.362 131.319 132.183C130.761 130.781 130.222 129.372 129.692 127.959C129.396 127.179 129.094 126.403 128.789 125.627C128.651 125.273 128.651 125.273 128.509 124.913C128.328 124.45 128.146 123.988 127.962 123.527C127.711 122.883 127.527 122.41 127.391 122.041C126.9 120.706 127.301 119.231 128.177 118.111C128.37 117.85 128.37 117.85 128.568 117.584C128.853 117.201 129.14 116.819 129.428 116.438C130.276 115.314 131.097 114.169 131.924 113.029C132.271 112.552 132.619 112.076 132.966 111.599C133.829 110.413 134.682 109.22 135.527 108.02C135.643 107.856 135.759 107.693 135.878 107.524C136.412 106.766 136.931 106.003 137.436 105.226C137.612 104.955 137.789 104.685 137.971 104.406C138.1 104.202 138.229 103.998 138.361 103.789C138.401 103.725 138.447 103.665 138.497 103.609C138.52 103.585 138.542 103.56 138.565 103.536C138.763 103.319 139.039 103.195 139.333 103.195C139.756 103.195 140.141 103.449 140.299 103.84C141.071 105.751 141.744 107.695 142.406 109.649C143.141 111.809 143.934 113.947 144.73 116.084C145.097 117.071 145.462 118.059 145.828 119.046C145.972 119.438 146.117 119.829 146.262 120.221C146.552 121.003 146.841 121.786 147.131 122.569C147.203 122.763 147.275 122.957 147.348 123.156C147.493 123.547 147.637 123.937 147.781 124.327C148.15 125.323 148.519 126.318 148.889 127.312C149.736 129.585 150.555 131.865 151.331 134.164C152.03 136.216 152.742 138.259 153.503 140.289C154.225 142.218 154.927 144.154 155.627 146.091C155.766 146.473 155.904 146.855 156.042 147.237C156.223 147.735 156.402 148.233 156.582 148.731C157.454 151.155 160.646 151.309 161.596 148.914C161.867 148.234 162.138 147.553 162.409 146.873C162.608 146.373 162.608 146.373 162.812 145.863C163.307 144.63 163.813 143.402 164.319 142.173C164.816 140.963 165.298 139.747 165.778 138.53C165.876 138.28 165.975 138.029 166.077 137.772C166.724 136.127 167.358 134.477 167.986 132.824C168.763 130.783 169.588 128.766 170.432 126.753C171.448 124.326 172.41 121.878 173.37 119.428C173.758 118.438 174.149 117.449 174.54 116.46C174.679 116.108 174.817 115.756 174.961 115.393C176.205 112.24 176.205 112.24 176.635 111.153C176.991 110.252 177.343 109.35 177.694 108.447C177.795 108.188 177.897 107.929 178.001 107.662C178.198 107.157 178.395 106.652 178.59 106.146C179.111 104.817 179.68 103.538 180.324 102.266C180.7 101.494 180.997 100.7 181.292 99.893C182.234 97.3671 183.259 94.887 184.351 92.4242C185.173 90.5695 185.957 88.7299 186.614 86.8075C187.217 85.1802 187.912 83.5917 188.596 81.9976C189.143 80.7206 189.673 79.4419 190.172 78.1447C190.317 77.7856 190.317 77.7856 190.465 77.4192C190.874 76.4062 191.409 75.2619 192.493 75.1286C192.791 75.092 193.12 75.0891 193.51 75.0757C193.785 75.074 194.061 75.0723 194.345 75.0706C194.635 75.0634 194.926 75.0563 195.225 75.0489C196.581 75.0217 197.936 75.0185 199.292 75.0119Z" fill="#EFEFEF"/>
</g>
<defs>
<filter id="filter0_d_485_8" x="14" y="21" width="230" height="226" filterUnits="userSpaceOnUse" color-interpolation-filters="sRGB">
<feFlood flood-opacity="0" result="BackgroundImageFix"/>
<feColorMatrix in="SourceAlpha" type="matrix" values="0 0 0 0 0 0 0 0 0 0 0 0 0 0 0 0 0 0 127 0" result="hardAlpha"/>
<feOffset dx="-4" dy="4"/>
<feGaussianBlur stdDeviation="2"/>
<feComposite in2="hardAlpha" operator="out"/>
<feColorMatrix type="matrix" values="0 0 0 0 0 0 0 0 0 0 0 0 0 0 0 0 0 0 0.14 0"/>
<feBlend mode="normal" in2="BackgroundImageFix" result="effect1_dropShadow_485_8"/>
<feBlend mode="normal" in="SourceGraphic" in2="effect1_dropShadow_485_8" result="shape"/>
</filter>
<filter id="filter1_d_485_8" x="47.1978" y="75" width="103.802" height="117" filterUnits="userSpaceOnUse" color-interpolation-filters="sRGB">
<feFlood flood-opacity="0" result="BackgroundImageFix"/>
<feColorMatrix in="SourceAlpha" type="matrix" values="0 0 0 0 0 0 0 0 0 0 0 0 0 0 0 0 0 0 127 0" result="hardAlpha"/>
<feOffset dx="-4" dy="4"/>
<feGaussianBlur stdDeviation="2"/>
<feComposite in2="hardAlpha" operator="out"/>
<feColorMatrix type="matrix" values="0 0 0 0 0 0 0 0 0 0 0 0 0 0 0 0 0 0 0.25 0"/>
<feBlend mode="normal" in2="BackgroundImageFix" result="effect1_dropShadow_485_8"/>
<feBlend mode="normal" in="SourceGraphic" in2="effect1_dropShadow_485_8" result="shape"/>
</filter>
<filter id="filter2_d_485_8" x="119.179" y="75" width="91.0918" height="117" filterUnits="userSpaceOnUse" color-interpolation-filters="sRGB">
<feFlood flood-opacity="0" result="BackgroundImageFix"/>
<feColorMatrix in="SourceAlpha" type="matrix" values="0 0 0 0 0 0 0 0 0 0 0 0 0 0 0 0 0 0 127 0" result="hardAlpha"/>
<feOffset dx="-4" dy="4"/>
<feGaussianBlur stdDeviation="2"/>
<feComposite in2="hardAlpha" operator="out"/>
<feColorMatrix type="matrix" values="0 0 0 0 0 0 0 0 0 0 0 0 0 0 0 0 0 0 0.25 0"/>
<feBlend mode="normal" in2="BackgroundImageFix" result="effect1_dropShadow_485_8"/>
<feBlend mode="normal" in="SourceGraphic" in2="effect1_dropShadow_485_8" result="shape"/>
</filter>
<linearGradient id="paint0_linear_485_8" x1="-3.20841e-06" y1="260" x2="265" y2="-1.93376e-05" gradientUnits="userSpaceOnUse">
<stop stop-color="#A78BFA"/>
<stop offset="1" stop-color="white"/>
</linearGradient>
</defs>
</svg>
