<svg width="103" height="59" viewBox="0 0 103 59" fill="none" xmlns="http://www.w3.org/2000/svg">
<path d="M90.8441 2.9502H12.1528V52.7914H90.8441V2.9502Z" fill="#576D78"/>
<path d="M90.6708 0H12.3253C11.7688 0.00296182 11.236 0.225617 10.8429 0.619464C10.4497 1.01331 10.228 1.54649 10.2261 2.10298V55.0921H92.7662V2.10298C92.766 1.54661 92.5454 1.01301 92.1527 0.618892C91.76 0.224779 91.2271 0.00223037 90.6708 0ZM90.8451 52.7914H12.1528V2.95009H90.8451V52.7914Z" fill="#163844"/>
<path d="M103 58.1265C103 58.2302 102.98 58.333 102.94 58.4288C102.9 58.5246 102.841 58.6116 102.768 58.6847C102.694 58.7579 102.607 58.8158 102.511 58.8551C102.415 58.8943 102.312 58.9142 102.208 58.9136H0.785346C0.682023 58.9137 0.57971 58.8934 0.484251 58.8539C0.388792 58.8144 0.302061 58.7564 0.229087 58.6832C0.156113 58.6101 0.0983465 58.5232 0.0590343 58.4277C0.0197221 58.3321 -0.00036538 58.2298 5.03089e-06 58.1265V55.8773C0.000128025 55.7743 0.020588 55.6723 0.0601211 55.5772C0.0996542 55.4821 0.157535 55.3957 0.230459 55.3229C0.303384 55.2502 0.389895 55.1924 0.485109 55.1531C0.580323 55.1138 0.682338 55.0936 0.785346 55.0938H102.208C102.312 55.0931 102.414 55.1129 102.51 55.152C102.606 55.191 102.693 55.2487 102.766 55.3214C102.84 55.3942 102.898 55.4807 102.939 55.5761C102.979 55.6714 103 55.7738 103 55.8773V58.1265Z" fill="#E4E7E7"/>
<path d="M52.0129 1.46988C52.012 1.57125 51.9811 1.6701 51.9241 1.75393C51.8671 1.83777 51.7866 1.90282 51.6927 1.94097C51.5988 1.97913 51.4956 1.98866 51.3963 1.96831C51.297 1.94797 51.2059 1.89869 51.1346 1.82669C51.0632 1.75468 51.0148 1.66318 50.9954 1.56369C50.9759 1.4642 50.9864 1.36119 51.0254 1.26763C51.0644 1.17406 51.1302 1.09414 51.2146 1.03792C51.2989 0.98169 51.398 0.951664 51.4993 0.95166C51.5671 0.951782 51.6343 0.965326 51.6969 0.991471C51.7594 1.01762 51.8161 1.05588 51.8639 1.10404C51.9116 1.1522 51.9494 1.2093 51.975 1.27209C52.0005 1.33488 52.0134 1.40208 52.0129 1.46988Z" fill="#FBFBFB"/>
<path d="M43.585 55.0923V55.7033C43.5862 55.9113 43.6697 56.1104 43.8171 56.2572C43.9646 56.404 44.1641 56.4866 44.3722 56.4868H58.6262C58.8338 56.4856 59.0325 56.4027 59.1795 56.2561C59.3265 56.1094 59.4098 55.9109 59.4115 55.7033V55.0923H43.585Z" fill="#C9D1D1"/>
</svg>
