<svg width="1436" height="800" viewBox="0 0 1436 800" fill="none" xmlns="http://www.w3.org/2000/svg">
<g opacity="0.8">
<g clip-path="url(#clip0_214_1023)">
<path d="M688.8 513.778L663.2 616.889L805.6 588.444L688.8 513.778Z" fill="#0A0A0A" stroke="#0A0A0A" stroke-linejoin="bevel"/>
<path d="M805.6 588.445L802.4 485.333L688.8 513.778L805.6 588.445Z" fill="#0D0D0D" stroke="#0D0D0D" stroke-linejoin="bevel"/>
<path d="M688.8 513.778L533.6 597.333L663.2 616.889L688.8 513.778Z" fill="#141414" stroke="#141414" stroke-linejoin="bevel"/>
<path d="M624.8 800H829.6L663.2 616.889L624.8 800Z" fill="#161616" stroke="#161616" stroke-linejoin="bevel"/>
<path d="M663.2 616.889L829.6 800L805.6 588.444L663.2 616.889Z" fill="#0D0D0D" stroke="#0D0D0D" stroke-linejoin="bevel"/>
<path d="M805.6 588.445L976.8 606.222L802.4 485.333L805.6 588.445Z" fill="#101010" stroke="#101010" stroke-linejoin="bevel"/>
<path d="M533.6 597.333L624.8 800L663.2 616.889L533.6 597.333Z" fill="#070707" stroke="#070707" stroke-linejoin="bevel"/>
<path d="M906.4 800L976.8 606.222L805.6 588.444L906.4 800Z" fill="#141414" stroke="#141414" stroke-linejoin="bevel"/>
<path d="M666.4 288L516 426.667L688.8 513.778L666.4 288Z" fill="#030303" stroke="#030303" stroke-linejoin="bevel"/>
<path d="M688.8 513.778L516 426.667L533.6 597.333L688.8 513.778Z" fill="#070707" stroke="#070707" stroke-linejoin="bevel"/>
<path d="M829.6 800H906.4L805.6 588.444L829.6 800Z" fill="#121212" stroke="#121212" stroke-linejoin="bevel"/>
<path d="M735.2 270.222L666.4 288L802.4 485.333L735.2 270.222Z" fill="#121212" stroke="#121212" stroke-linejoin="bevel"/>
<path d="M802.4 485.333L666.4 288L688.8 513.778L802.4 485.333Z" fill="#0D0D0D" stroke="#0D0D0D" stroke-linejoin="bevel"/>
<path d="M976.8 606.222L964 423.111L802.4 485.333L976.8 606.222Z" fill="#141414" stroke="#141414" stroke-linejoin="bevel"/>
<path d="M826.4 227.556L735.2 270.222L802.4 485.333L826.4 227.556Z" fill="#101010" stroke="#101010" stroke-linejoin="bevel"/>
<path d="M964 423.111L948 378.667L802.4 485.333L964 423.111Z" fill="#101010" stroke="#101010" stroke-linejoin="bevel"/>
<path d="M655.2 224L532 300.444L666.4 288L655.2 224Z" fill="black" stroke="black" stroke-linejoin="bevel"/>
<path d="M666.4 288L532 300.444L516 426.667L666.4 288Z" fill="#030303" stroke="#030303" stroke-linejoin="bevel"/>
<path d="M735.2 270.222L655.2 224L666.4 288L735.2 270.222Z" fill="#030303" stroke="#030303" stroke-linejoin="bevel"/>
<path d="M826.4 227.556L655.2 224L735.2 270.222L826.4 227.556Z" fill="#121212" stroke="#121212" stroke-linejoin="bevel"/>
<path d="M948 378.667L826.4 227.556L802.4 485.333L948 378.667Z" fill="#030303" stroke="#030303" stroke-linejoin="bevel"/>
<path d="M356 609.778L418.4 800L533.6 597.333L356 609.778Z" fill="black" stroke="black" stroke-linejoin="bevel"/>
<path d="M533.6 597.333L418.4 800H624.8L533.6 597.333Z" fill="#0A0A0A" stroke="#0A0A0A" stroke-linejoin="bevel"/>
<path d="M356 609.778L533.6 597.333L516 426.667L356 609.778Z" fill="#030303" stroke="#030303" stroke-linejoin="bevel"/>
<path d="M258.4 428.444L356 609.778L516 426.667L258.4 428.444Z" fill="black" stroke="black" stroke-linejoin="bevel"/>
<path d="M906.4 800L1104.8 698.667L976.8 606.222L906.4 800Z" fill="#030303" stroke="#030303" stroke-linejoin="bevel"/>
<path d="M976.8 606.222L1133.6 430.222L964 423.111L976.8 606.222Z" fill="#141414" stroke="#141414" stroke-linejoin="bevel"/>
<path d="M964 423.111L1133.6 430.222L948 378.667L964 423.111Z" fill="black" stroke="black" stroke-linejoin="bevel"/>
<path d="M906.4 800H1106.4L1104.8 698.667L906.4 800Z" fill="#0A0A0A" stroke="#0A0A0A" stroke-linejoin="bevel"/>
<path d="M1104.8 698.667L1133.6 430.222L976.8 606.222L1104.8 698.667Z" fill="#161616" stroke="#161616" stroke-linejoin="bevel"/>
<path d="M948 378.666L1012 200.889L826.4 227.555L948 378.666Z" fill="#070707" stroke="#070707" stroke-linejoin="bevel"/>
<path d="M1300 595.556L1133.6 430.222L1104.8 698.667L1300 595.556Z" fill="#1A1A1A" stroke="#1A1A1A" stroke-linejoin="bevel"/>
<path d="M1077.6 199.111L1012 200.889L1125.6 256L1077.6 199.111Z" fill="#0A0A0A" stroke="#0A0A0A" stroke-linejoin="bevel"/>
<path d="M687.2 0L517.6 147.556L655.2 224L687.2 0Z" fill="black" stroke="black" stroke-linejoin="bevel"/>
<path d="M655.2 224L517.6 147.556L532 300.445L655.2 224Z" fill="#161616" stroke="#161616" stroke-linejoin="bevel"/>
<path d="M252 316.444L258.4 428.444L516 426.667L252 316.444Z" fill="black" stroke="black" stroke-linejoin="bevel"/>
<path d="M748 0L655.2 224L826.4 227.556L748 0Z" fill="#030303" stroke="#030303" stroke-linejoin="bevel"/>
<path d="M356 609.778L301.6 800H418.4L356 609.778Z" fill="#030303" stroke="#030303" stroke-linejoin="bevel"/>
<path d="M1125.6 256L1012 200.889L948 378.666L1125.6 256Z" fill="#030303" stroke="#030303" stroke-linejoin="bevel"/>
<path d="M983.2 0H748L826.4 227.556L983.2 0Z" fill="#070707" stroke="#070707" stroke-linejoin="bevel"/>
<path d="M1133.6 430.222L1125.6 256L948 378.667L1133.6 430.222Z" fill="#1A1A1A" stroke="#1A1A1A" stroke-linejoin="bevel"/>
<path d="M252 316.444L516 426.667L532 300.444L252 316.444Z" fill="#141414" stroke="#141414" stroke-linejoin="bevel"/>
<path d="M356 609.778L215.2 645.333L301.6 800L356 609.778Z" fill="#0D0D0D" stroke="#0D0D0D" stroke-linejoin="bevel"/>
<path d="M258.4 428.444L215.2 645.333L356 609.778L258.4 428.444Z" fill="#141414" stroke="#141414" stroke-linejoin="bevel"/>
<path d="M983.2 0L826.4 227.556L1012 200.889L983.2 0Z" fill="#101010" stroke="#101010" stroke-linejoin="bevel"/>
<path d="M748 0H687.2L655.2 224L748 0Z" fill="#181818" stroke="#181818" stroke-linejoin="bevel"/>
<path d="M517.6 147.556L252 316.445L532 300.445L517.6 147.556Z" fill="#181818" stroke="#181818" stroke-linejoin="bevel"/>
<path d="M258.4 428.444L144.8 490.667L215.2 645.333L258.4 428.444Z" fill="#0D0D0D" stroke="#0D0D0D" stroke-linejoin="bevel"/>
<path d="M255.2 90.6665L252 316.444L517.6 147.555L255.2 90.6665Z" fill="#1A1A1A" stroke="#1A1A1A" stroke-linejoin="bevel"/>
<path d="M687.2 0H519.2L517.6 147.556L687.2 0Z" fill="#101010" stroke="#101010" stroke-linejoin="bevel"/>
<path d="M1308 800L1300 595.556L1104.8 698.667L1308 800Z" fill="#161616" stroke="#161616" stroke-linejoin="bevel"/>
<path d="M1133.6 430.222L1338.4 286.222L1125.6 256L1133.6 430.222Z" fill="#141414" stroke="#141414" stroke-linejoin="bevel"/>
<path d="M1077.6 199.111L983.2 0L1012 200.889L1077.6 199.111Z" fill="#030303" stroke="#030303" stroke-linejoin="bevel"/>
<path d="M1154.4 0H983.2L1077.6 199.111L1154.4 0Z" fill="#030303" stroke="#030303" stroke-linejoin="bevel"/>
<path d="M-4 800H183.2L215.2 645.333L-4 800Z" fill="#1A1A1A" stroke="#1A1A1A" stroke-linejoin="bevel"/>
<path d="M215.2 645.333L183.2 800H301.6L215.2 645.333Z" fill="#0A0A0A" stroke="#0A0A0A" stroke-linejoin="bevel"/>
<path d="M156 359.111L144.8 490.667L258.4 428.445L156 359.111Z" fill="black" stroke="black" stroke-linejoin="bevel"/>
<path d="M1300 595.555L1324 465.778L1133.6 430.222L1300 595.555Z" fill="#181818" stroke="#181818" stroke-linejoin="bevel"/>
<path d="M1125.6 256L1154.4 0L1077.6 199.111L1125.6 256Z" fill="#0D0D0D" stroke="#0D0D0D" stroke-linejoin="bevel"/>
<path d="M168.8 215.111L156 359.111L252 316.445L168.8 215.111Z" fill="#0D0D0D" stroke="#0D0D0D" stroke-linejoin="bevel"/>
<path d="M252 316.444L156 359.111L258.4 428.444L252 316.444Z" fill="#070707" stroke="#070707" stroke-linejoin="bevel"/>
<path d="M1106.4 800H1308L1104.8 698.667L1106.4 800Z" fill="#030303" stroke="#030303" stroke-linejoin="bevel"/>
<path d="M1300 595.556L1436 451.556L1324 465.778L1300 595.556Z" fill="#101010" stroke="#101010" stroke-linejoin="bevel"/>
<path d="M519.2 0H354.4L517.6 147.556L519.2 0Z" fill="#070707" stroke="#070707" stroke-linejoin="bevel"/>
<path d="M354.4 0L255.2 90.6667L517.6 147.556L354.4 0Z" fill="#030303" stroke="#030303" stroke-linejoin="bevel"/>
<path d="M255.2 90.6665L168.8 215.111L252 316.444L255.2 90.6665Z" fill="#030303" stroke="#030303" stroke-linejoin="bevel"/>
<path d="M1436 451.555L1338.4 286.222L1324 465.778L1436 451.555Z" fill="#161616" stroke="#161616" stroke-linejoin="bevel"/>
<path d="M1324 465.778L1338.4 286.222L1133.6 430.222L1324 465.778Z" fill="black" stroke="black" stroke-linejoin="bevel"/>
<path d="M1335.2 124.444L1154.4 0L1125.6 256L1335.2 124.444Z" fill="#0A0A0A" stroke="#0A0A0A" stroke-linejoin="bevel"/>
<path d="M1308 800L1436 705.778L1300 595.556L1308 800Z" fill="#070707" stroke="#070707" stroke-linejoin="bevel"/>
<path d="M1436 705.778V451.556L1300 595.556L1436 705.778Z" fill="#070707" stroke="#070707" stroke-linejoin="bevel"/>
<path d="M1436 254.222L1335.2 124.444L1338.4 286.222L1436 254.222Z" fill="#121212" stroke="#121212" stroke-linejoin="bevel"/>
<path d="M1338.4 286.222L1335.2 124.444L1125.6 256L1338.4 286.222Z" fill="#070707" stroke="#070707" stroke-linejoin="bevel"/>
<path d="M1308 800H1436V705.778L1308 800Z" fill="#181818" stroke="#181818" stroke-linejoin="bevel"/>
<path d="M144.8 490.667L-4 584.889L215.2 645.333L144.8 490.667Z" fill="black" stroke="black" stroke-linejoin="bevel"/>
<path d="M-4 522.667V584.889L144.8 490.667L-4 522.667Z" fill="#0A0A0A" stroke="#0A0A0A" stroke-linejoin="bevel"/>
<path d="M-4 522.667L144.8 490.667L156 359.111L-4 522.667Z" fill="#121212" stroke="#121212" stroke-linejoin="bevel"/>
<path d="M-4 288V522.667L156 359.111L-4 288Z" fill="#030303" stroke="#030303" stroke-linejoin="bevel"/>
<path d="M255.2 90.6667L180 0L168.8 215.111L255.2 90.6667Z" fill="#0D0D0D" stroke="#0D0D0D" stroke-linejoin="bevel"/>
<path d="M168.8 215.111L-4 288L156 359.111L168.8 215.111Z" fill="#030303" stroke="#030303" stroke-linejoin="bevel"/>
<path d="M354.4 0H180L255.2 90.6667L354.4 0Z" fill="#161616" stroke="#161616" stroke-linejoin="bevel"/>
<path d="M-4 584.889V800L215.2 645.333L-4 584.889Z" fill="#070707" stroke="#070707" stroke-linejoin="bevel"/>
<path d="M1436 451.555V254.222L1338.4 286.222L1436 451.555Z" fill="#1A1A1A" stroke="#1A1A1A" stroke-linejoin="bevel"/>
<path d="M-4 104.889V288L168.8 215.111L-4 104.889Z" fill="#1A1A1A" stroke="#1A1A1A" stroke-linejoin="bevel"/>
<path d="M1436 110.222L1333.6 0L1335.2 124.444L1436 110.222Z" fill="#121212" stroke="#121212" stroke-linejoin="bevel"/>
<path d="M1335.2 124.444L1333.6 0H1154.4L1335.2 124.444Z" fill="#161616" stroke="#161616" stroke-linejoin="bevel"/>
<path d="M1436 254.222V110.222L1335.2 124.444L1436 254.222Z" fill="#161616" stroke="#161616" stroke-linejoin="bevel"/>
<path d="M180 0L-4 104.889L168.8 215.111L180 0Z" fill="#181818" stroke="#181818" stroke-linejoin="bevel"/>
<path d="M1436 110.222V0H1333.6L1436 110.222Z" fill="#1A1A1A" stroke="#1A1A1A" stroke-linejoin="bevel"/>
<path d="M180 0H-4V104.889L180 0Z" fill="#101010" stroke="#101010" stroke-linejoin="bevel"/>
</g>
</g>
<defs>
<clipPath id="clip0_214_1023">
<rect x="-4" width="1440" height="800" rx="20" fill="white"/>
</clipPath>
</defs>
</svg>
