<svg width="85" height="85" viewBox="0 0 85 85" fill="none" xmlns="http://www.w3.org/2000/svg">
<rect x="3" y="2" width="80" height="82" rx="10" fill="black"/>
<path d="M41.2607 26.003C41.3335 26.003 41.4062 26.0029 41.4812 26.0029C41.7217 26.003 41.9622 26.0045 42.2028 26.0059C42.3695 26.0062 42.5363 26.0065 42.703 26.0067C43.1419 26.0074 43.5809 26.0092 44.0198 26.0112C44.4677 26.0131 44.9156 26.0139 45.3635 26.0149C46.2423 26.0168 47.1212 26.02 48 26.0238C48 26.145 48 26.2662 48 26.391C47.94 26.391 47.88 26.391 47.8182 26.391C47.7927 26.4448 47.7673 26.4986 47.7411 26.5541C47.6435 26.7444 47.5377 26.9124 47.4151 27.087C47.3717 27.1492 47.3282 27.2113 47.2834 27.2753C47.2134 27.3743 47.2134 27.3743 47.142 27.4754C47.0934 27.5446 47.0448 27.6138 46.9947 27.6852C46.6423 28.1853 46.284 28.6809 45.923 29.1747C45.5561 29.6779 45.1994 30.1879 44.8437 30.6991C44.5296 31.1501 44.2106 31.597 43.8881 32.042C43.737 32.2525 43.5896 32.4652 43.4432 32.6792C43.0783 33.2088 42.6961 33.7253 42.3159 34.2437C41.9538 34.7388 41.5993 35.2385 41.25 35.7429C40.9302 36.2044 40.6042 36.6584 40.2614 37.1027C39.792 37.7114 39.3499 38.3374 38.9091 38.9673C38.7654 39.1721 38.6215 39.3767 38.4773 39.5812C38.4408 39.633 38.4043 39.6847 38.3667 39.738C37.986 40.2757 37.5966 40.8069 37.2055 41.3369C37.1049 41.4739 37.0055 41.6118 36.9074 41.7506C36.784 41.9191 36.6544 42.0832 36.52 42.2429C35.8439 43.1006 35.7927 43.7961 35.8079 44.8676C35.8072 45.0332 35.8062 45.1989 35.8048 45.3646C35.8022 45.8109 35.8045 46.257 35.8078 46.7032C35.8103 47.1708 35.8083 47.6385 35.8067 48.1061C35.8044 48.9901 35.8063 49.874 35.8097 50.7579C35.8133 51.7649 35.8123 52.7719 35.8109 53.7789C35.8082 55.849 35.8113 57.9189 35.8182 59.989C35.0983 59.9911 34.3784 59.9927 33.6585 59.9937C33.3242 59.9942 32.99 59.9948 32.6557 59.9959C32.3333 59.9969 32.0109 59.9974 31.6884 59.9977C31.5653 59.9978 31.4421 59.9982 31.3189 59.9987C31.1468 59.9993 30.9746 59.9994 30.8024 59.9994C30.6553 59.9997 30.6553 59.9997 30.5051 60C30.2727 59.989 30.2727 59.989 30.0909 59.8972C29.9514 58.9435 29.9894 57.9564 29.9969 56.995C29.9977 56.8478 29.9984 56.7006 29.9991 56.5535C30.0006 56.2396 30.0023 55.9257 30.0043 55.6118C30.0073 55.1148 30.0091 54.6178 30.0108 54.1208C30.0113 53.9498 30.0119 53.7789 30.0125 53.608C30.0129 53.4797 30.0129 53.4797 30.0133 53.3489C30.0172 52.194 30.022 51.0391 30.0293 49.8842C30.0343 49.1019 30.0376 48.3196 30.0391 47.5374C30.0399 47.1245 30.0416 46.7116 30.0453 46.2987C30.0487 45.911 30.05 45.5233 30.0497 45.1355C30.05 44.9937 30.0511 44.852 30.053 44.7102C30.0631 43.9161 30.0299 43.2949 29.5455 42.6392C29.491 42.5567 29.4365 42.4742 29.3803 42.3893C29.3279 42.3184 29.2756 42.2475 29.2216 42.1745C29.1597 42.0901 29.0978 42.0057 29.0341 41.9188C28.8735 41.7036 28.7125 41.4887 28.5511 41.2741C28.0864 40.6546 27.6384 40.0382 27.2344 39.3757C27.0436 39.0768 26.8275 38.8028 26.608 38.5252C26.4041 38.2588 26.2238 37.9793 26.0412 37.6979C25.8283 37.3767 25.5957 37.0714 25.3636 36.7642C24.6209 35.7742 23.902 34.7693 23.2045 33.7463C22.9419 33.3611 22.6742 32.9825 22.3899 32.6132C22.2727 32.4497 22.2727 32.4497 22.1587 32.2514C21.9291 31.8743 21.6652 31.5249 21.4034 31.1702C20.7112 30.2272 20.0325 29.2759 19.37 28.3112C19.209 28.082 19.0452 27.8554 18.88 27.6292C18.826 27.5549 18.772 27.4806 18.7164 27.4041C18.6074 27.2544 18.4979 27.105 18.3879 26.9561C18.3378 26.8871 18.2877 26.8181 18.2362 26.7471C18.1907 26.6852 18.1452 26.6232 18.0984 26.5594C18 26.391 18 26.391 18 26.1156C18.9609 26.0986 19.9218 26.0856 20.8829 26.0776C21.3292 26.0738 21.7754 26.0686 22.2216 26.0602C22.6525 26.0522 23.0833 26.0479 23.5143 26.046C23.6784 26.0446 23.8426 26.042 24.0067 26.038C25.2935 26.0081 25.2935 26.0081 25.6944 26.2758C25.8566 26.4603 25.9751 26.6336 26.0909 26.85C26.1489 26.9272 26.2069 27.0043 26.2667 27.0838C26.3344 27.1839 26.3344 27.1839 26.4034 27.2861C26.456 27.3634 26.5086 27.4408 26.5629 27.5206C26.7365 27.7819 26.908 28.0446 27.0795 28.3073C27.3993 28.7951 27.7397 29.2603 28.0927 29.7241C28.2596 29.9531 28.4015 30.1861 28.5455 30.4301C28.6631 30.5977 28.7825 30.7641 28.9034 30.9293C29.1567 31.2779 29.3988 31.6309 29.6364 31.9907C29.8089 32.2327 29.9831 32.4735 30.1573 32.7143C31.7183 34.8793 31.7183 34.8793 32.3175 35.8394C32.3547 35.8989 32.3919 35.9584 32.4302 36.0197C32.502 36.1354 32.5733 36.2515 32.6438 36.3679C32.7276 36.5031 32.8178 36.6341 32.9091 36.7642C32.9691 36.7642 33.0291 36.7642 33.0909 36.7642C33.3628 36.4102 33.584 36.0527 33.7994 35.6612C33.9892 35.346 34.2127 35.0554 34.4297 34.759C34.6586 34.4381 34.8754 34.1108 35.0909 33.7807C35.4091 33.2941 35.7385 32.8193 36.081 32.3496C36.4902 31.7795 36.8795 31.1951 37.2727 30.6137C37.4734 30.3173 37.6742 30.0208 37.875 29.7244C37.9252 29.6503 37.9754 29.5761 38.0272 29.4997C38.3718 28.9909 38.7181 28.4834 39.0668 27.9774C39.2244 27.7469 39.3804 27.5155 39.5355 27.2832C39.5806 27.2161 39.6256 27.1489 39.672 27.0798C39.76 26.9485 39.8477 26.8169 39.9349 26.685C39.9749 26.6255 40.0149 26.566 40.0561 26.5047C40.0914 26.4517 40.1266 26.3987 40.163 26.3442C40.4709 25.9605 40.8154 25.9987 41.2607 26.003Z" fill="#F1F1F1"/>
<path d="M63.2368 26.0037C64.4912 25.9979 65.7456 25.9994 67 26.0048C66.952 26.4252 66.8756 26.7658 66.6901 27.1472C66.6466 27.2382 66.6031 27.3292 66.5582 27.423C66.512 27.5178 66.4657 27.6126 66.4181 27.7102C66.0952 28.3863 65.7867 29.0564 65.5245 29.7575C65.4008 30.0758 65.2617 30.3864 65.1205 30.6974C64.8314 31.3356 64.5671 31.9821 64.3058 32.6317C63.9715 33.4622 63.6185 34.281 63.2446 35.0949C63.1237 35.3587 63.0102 35.6239 62.9034 35.8936C62.6492 36.5347 62.3542 37.1591 62.0687 37.7872C61.9192 38.1169 61.7709 38.4472 61.6233 38.7778C61.5738 38.8883 61.5244 38.9988 61.4734 39.1126C61.3262 39.4475 61.1892 39.7861 61.0522 40.1251C60.8513 40.6182 60.6432 41.1084 60.4362 41.5991C60.3873 41.7153 60.3383 41.8314 60.2894 41.9476C60.2133 42.128 60.1373 42.3085 60.0613 42.4889C59.8858 42.9053 59.7107 43.3217 59.5357 43.7383C58.7357 45.6426 58.7357 45.6426 58.3297 46.5835C58.0492 47.2344 57.7808 47.8896 57.5151 48.5464C56.8935 50.0823 56.2446 51.6061 55.5795 53.1242C55.0826 54.2618 54.6109 55.4097 54.1441 56.5595C54.0706 56.7404 53.9968 56.9211 53.923 57.1018C53.8813 57.2038 53.8397 57.3057 53.7968 57.4108C53.7734 57.4671 53.7501 57.5233 53.726 57.5813C53.5885 57.9153 53.4609 58.2506 53.3422 58.5915C53.3151 58.6664 53.2881 58.7412 53.2603 58.8184C53.2077 58.9646 53.1572 59.1115 53.1089 59.259C53.0845 59.3258 53.06 59.3925 53.0348 59.4613C53.0145 59.5207 52.9942 59.58 52.9732 59.6411C52.7694 59.8863 52.5011 59.9266 52.1966 59.9746C51.8896 59.9985 51.5846 60.0003 51.2768 59.9989C51.1469 59.9991 51.1469 59.9991 51.0143 59.9994C50.8321 59.9995 50.6498 59.9992 50.4676 59.9984C50.1895 59.9974 49.9115 59.9984 49.6335 59.9996C49.4558 59.9995 49.2782 59.9992 49.1005 59.9989C49.0179 59.9992 48.9352 59.9996 48.8501 60C48.4145 59.9968 48.033 59.985 47.6345 59.7914C47.5041 59.6196 47.5041 59.6196 47.413 59.3944C47.3754 59.3038 47.3378 59.2132 47.2991 59.1198C47.2562 59.0091 47.2132 58.8983 47.169 58.7842C47.1134 58.6449 47.0578 58.5057 47.0021 58.3664C46.8415 57.9621 46.6843 57.5567 46.5281 57.1507C46.4309 56.8981 46.3331 56.6457 46.2352 56.3932C45.9132 55.5607 45.5974 54.7266 45.3016 53.8847C45.1435 53.4365 44.9634 53.0008 44.7741 52.5648C44.5573 52.0517 44.3645 51.5295 44.1683 51.0085C44.05 50.695 43.9308 50.3818 43.8114 50.0686C43.7881 50.0074 43.7647 49.9461 43.7407 49.883C43.4708 49.1759 43.1953 48.4709 42.9149 47.7678C42.6661 47.143 42.4191 46.5188 42.1937 45.8854C41.9464 45.1942 41.6668 44.5165 41.3882 43.837C41.2089 43.3996 41.0356 42.9602 40.8652 42.5194C40.7701 42.2761 40.6732 42.0339 40.575 41.7919C40.5305 41.6816 40.5305 41.6816 40.4852 41.5691C40.427 41.4249 40.3684 41.2808 40.3093 41.1369C40.0056 40.3812 40.0056 40.3812 40 40.0139C40.1172 39.7989 40.2264 39.6358 40.3782 39.4474C40.4404 39.3661 40.4404 39.3661 40.5039 39.2832C40.5955 39.1636 40.6877 39.0445 40.7805 38.9258C41.0531 38.575 41.3171 38.218 41.5828 37.8622C41.6944 37.7135 41.8061 37.5649 41.9177 37.4162C42.195 37.0461 42.4692 36.674 42.7407 36.2999C42.778 36.2488 42.8153 36.1977 42.8537 36.145C43.0252 35.9088 43.1921 35.6708 43.3543 35.4283C43.411 35.3439 43.4678 35.2595 43.5263 35.1725C43.5741 35.0991 43.6218 35.0257 43.671 34.9501C43.7193 34.8989 43.7675 34.8476 43.8172 34.7949C43.9401 34.7949 44.063 34.7949 44.1897 34.7949C44.4742 35.4554 44.7151 36.1299 44.9518 36.8081C45.1883 37.4818 45.4431 38.1485 45.699 38.8153C45.817 39.1231 45.9344 39.4312 46.0517 39.7392C46.0983 39.8613 46.1448 39.9834 46.1914 40.1055C46.2845 40.3496 46.3776 40.5938 46.4707 40.838C46.4937 40.8984 46.5168 40.9589 46.5406 41.0212C46.587 41.143 46.6334 41.2647 46.6798 41.3865C46.7981 41.6969 46.9167 42.0073 47.0359 42.3175C47.3079 43.0265 47.5713 43.7376 47.8207 44.4547C48.0453 45.0948 48.2743 45.7322 48.5188 46.3653C48.7508 46.967 48.9764 47.571 49.2016 48.1752C49.2461 48.2944 49.2905 48.4136 49.335 48.5328C49.6416 49.3541 49.9434 50.177 50.2414 51.0014C50.5778 50.3692 50.8498 49.7175 51.12 49.0557C51.2072 48.8435 51.2943 48.6313 51.3815 48.4191C51.4456 48.2631 51.4456 48.2631 51.5109 48.1039C51.6699 47.7193 51.8327 47.3363 51.9955 46.9532C52.1552 46.5757 52.3102 46.1964 52.4642 45.8167C52.496 45.7386 52.5277 45.6606 52.5604 45.5801C52.7685 45.067 52.9722 44.5524 53.1741 44.0369C53.4239 43.4003 53.689 42.7711 53.9604 42.1432C54.2867 41.3861 54.5961 40.6226 54.9046 39.8584C55.0293 39.5495 55.155 39.2409 55.2806 38.9323C55.3252 38.8226 55.3699 38.7128 55.4159 38.5997C55.8159 37.6161 55.8159 37.6161 55.9541 37.2771C56.0685 36.996 56.1817 36.7146 56.2946 36.433C56.3271 36.3521 56.3596 36.2713 56.3932 36.188C56.4566 36.0305 56.5197 35.8729 56.5826 35.7152C56.7498 35.3006 56.933 34.9019 57.1398 34.5049C57.2607 34.2642 57.3563 34.0165 57.4511 33.7648C57.7539 32.9769 58.0834 32.2033 58.4343 31.4351C58.6986 30.8566 58.9504 30.2827 59.1615 29.6831C59.3554 29.1755 59.579 28.68 59.7986 28.1827C59.9744 27.7844 60.145 27.3855 60.3053 26.9809C60.3519 26.8689 60.3519 26.8689 60.3995 26.7546C60.4658 26.595 60.5287 26.4341 60.5904 26.2727C60.8348 26.0217 61.0332 26.0352 61.3782 26.0236C61.4667 26.0231 61.5553 26.0226 61.6466 26.022C61.7399 26.0198 61.8333 26.0175 61.9295 26.0152C62.3652 26.0068 62.801 26.0058 63.2368 26.0037Z" fill="#EFEFEF"/>
<path d="M36.5234 53.042C36.5508 53.042 36.5782 53.042 36.6064 53.042C36.6203 53.5488 36.6337 54.0556 36.6465 54.5624C36.6509 54.735 36.6555 54.9075 36.6603 55.0801C36.667 55.3275 36.6733 55.575 36.6794 55.8224C36.6816 55.9001 36.6839 55.9777 36.6862 56.0577C36.6879 56.1292 36.6895 56.2006 36.6913 56.2743C36.6929 56.3375 36.6946 56.4007 36.6963 56.4658C36.6895 56.6113 36.6895 56.6113 36.6064 56.6943C36.3626 56.7099 36.3626 56.7099 36.1084 56.6943C36.0536 56.6396 35.9988 56.5848 35.9424 56.5283C36.1341 56.5283 36.3259 56.5283 36.5234 56.5283C36.5234 55.3778 36.5234 54.2273 36.5234 53.042Z" fill="#FDFDFD"/>
<path d="M20.5029 26.1475C21.2151 26.1475 21.9273 26.1475 22.6611 26.1475C22.6611 26.1749 22.6611 26.2022 22.6611 26.2305C22.1133 26.2579 21.5654 26.2853 21.001 26.3135C20.9119 26.6699 20.9348 26.7447 21.084 27.0605C20.8642 26.8466 20.6736 26.6524 20.5029 26.3965C20.5029 26.3143 20.5029 26.2321 20.5029 26.1475Z" fill="#5A5A5A"/>
<path d="M20.5859 26.2305C20.7229 26.2305 20.8599 26.2305 21.001 26.2305C20.9839 26.2904 20.9667 26.3503 20.9491 26.412C20.913 26.6826 20.9664 26.8184 21.084 27.0605C20.7905 26.7971 20.6203 26.6316 20.5859 26.2305Z" fill="#878787"/>
<path d="M43.5791 35.1123C43.6465 35.2524 43.6465 35.2524 43.6621 35.4443C43.4827 35.6528 43.3284 35.8187 43.0811 35.9424C43.1948 35.6108 43.3514 35.3779 43.5791 35.1123Z" fill="#3F3F3F"/>
</svg>
