<svg width="62" height="62" viewBox="0 0 62 62" fill="none" xmlns="http://www.w3.org/2000/svg">
<path d="M30.4471 18.7901C30.4955 18.79 30.544 18.79 30.5939 18.79C30.7541 18.7901 30.9143 18.791 31.0745 18.792C31.1856 18.7922 31.2966 18.7924 31.4077 18.7925C31.7 18.793 31.9923 18.7942 32.2847 18.7955C32.583 18.7967 32.8813 18.7973 33.1796 18.7979C33.7649 18.7992 34.3502 18.8013 34.9355 18.8038C34.9355 18.8837 34.9355 18.9636 34.9355 19.046C34.8956 19.046 34.8556 19.046 34.8145 19.046C34.7975 19.0815 34.7806 19.117 34.7631 19.1535C34.6981 19.279 34.6276 19.3899 34.546 19.5051C34.5171 19.546 34.4881 19.587 34.4583 19.6292C34.4117 19.6946 34.4117 19.6946 34.3641 19.7612C34.3317 19.8069 34.2994 19.8525 34.266 19.8996C34.0313 20.2295 33.7927 20.5563 33.5523 20.882C33.3079 21.2139 33.0703 21.5503 32.8334 21.8875C32.6242 22.1849 32.4117 22.4797 32.197 22.7732C32.0963 22.9121 31.9982 23.0524 31.9006 23.1935C31.6576 23.5428 31.4031 23.8835 31.1499 24.2254C30.9087 24.5519 30.6726 24.8815 30.4399 25.2142C30.227 25.5186 30.0098 25.818 29.7815 26.1111C29.4689 26.5126 29.1744 26.9254 28.8809 27.3409C28.7852 27.476 28.6893 27.611 28.5933 27.7458C28.569 27.78 28.5446 27.8141 28.5196 27.8493C28.2661 28.2039 28.0067 28.5542 27.7463 28.9038C27.6793 28.9942 27.6131 29.0851 27.5477 29.1767C27.4655 29.2879 27.3792 29.3961 27.2897 29.5014C26.8394 30.0671 26.8053 30.5258 26.8154 31.2325C26.8149 31.3418 26.8143 31.4511 26.8134 31.5604C26.8116 31.8547 26.8132 32.1489 26.8153 32.4433C26.817 32.7517 26.8157 33.0601 26.8146 33.3686C26.8131 33.9516 26.8143 34.5346 26.8166 35.1176C26.819 35.7818 26.8184 36.446 26.8174 37.1102C26.8156 38.4755 26.8177 39.8408 26.8223 41.2062C26.3428 41.2076 25.8633 41.2086 25.3839 41.2093C25.1613 41.2096 24.9386 41.21 24.716 41.2107C24.5013 41.2114 24.2865 41.2117 24.0718 41.2119C23.9898 41.212 23.9077 41.2122 23.8257 41.2126C23.711 41.213 23.5964 41.213 23.4817 41.213C23.3837 41.2132 23.3837 41.2132 23.2837 41.2134C23.1289 41.2062 23.1289 41.2062 23.0078 41.1456C22.9149 40.5166 22.9402 39.8655 22.9452 39.2314C22.9457 39.1344 22.9462 39.0373 22.9466 38.9402C22.9476 38.7332 22.9488 38.5261 22.9501 38.3191C22.9521 37.9913 22.9534 37.6635 22.9544 37.3357C22.9548 37.2229 22.9552 37.1102 22.9556 36.9975C22.9559 36.9129 22.9559 36.9129 22.9561 36.8266C22.9587 36.0648 22.9619 35.3031 22.9668 34.5414C22.9701 34.0254 22.9723 33.5094 22.9733 32.9935C22.9739 32.7211 22.975 32.4488 22.9774 32.1765C22.9797 31.9208 22.9806 31.665 22.9804 31.4093C22.9806 31.3158 22.9813 31.2223 22.9825 31.1288C22.9893 30.605 22.9672 30.1953 22.6445 29.7628C22.6082 29.7084 22.5719 29.654 22.5346 29.5979C22.4997 29.5512 22.4648 29.5044 22.4288 29.4563C22.3876 29.4006 22.3464 29.345 22.304 29.2876C22.197 29.1457 22.0898 29.004 21.9823 28.8624C21.6728 28.4538 21.3744 28.0472 21.1053 27.6103C20.9783 27.4131 20.8343 27.2324 20.6881 27.0493C20.5523 26.8736 20.4323 26.6893 20.3106 26.5037C20.1689 26.2918 20.014 26.0904 19.8594 25.8878C19.3647 25.2349 18.8859 24.572 18.4214 23.8973C18.2464 23.6432 18.0681 23.3935 17.8788 23.1499C17.8008 23.0421 17.8008 23.0421 17.7249 22.9113C17.572 22.6626 17.3962 22.4322 17.2218 22.1982C16.7608 21.5762 16.3087 20.9487 15.8675 20.3125C15.7603 20.1613 15.6512 20.0118 15.5412 19.8627C15.5052 19.8137 15.4692 19.7647 15.4322 19.7142C15.3596 19.6154 15.2867 19.5169 15.2134 19.4187C15.1801 19.3732 15.1467 19.3277 15.1124 19.2808C15.0821 19.24 15.0518 19.1991 15.0206 19.1571C14.9551 19.046 14.9551 19.046 14.9551 18.8644C15.5951 18.8531 16.235 18.8445 16.8751 18.8393C17.1724 18.8367 17.4695 18.8333 17.7667 18.8278C18.0537 18.8225 18.3406 18.8197 18.6277 18.8184C18.737 18.8175 18.8463 18.8158 18.9556 18.8131C19.8127 18.7934 19.8127 18.7934 20.0796 18.97C20.1877 19.0917 20.2666 19.206 20.3438 19.3487C20.3824 19.3996 20.421 19.4505 20.4608 19.5029C20.5059 19.569 20.5059 19.569 20.5519 19.6363C20.5869 19.6874 20.622 19.7384 20.6581 19.791C20.7737 19.9634 20.888 20.1366 21.0022 20.3099C21.2152 20.6316 21.4418 20.9385 21.677 21.2444C21.7881 21.3954 21.8826 21.5491 21.9785 21.7101C22.0569 21.8206 22.1364 21.9303 22.2169 22.0393C22.3856 22.2692 22.5469 22.502 22.7051 22.7394C22.82 22.899 22.936 23.0578 23.052 23.2166C24.0917 24.6446 24.0917 24.6446 24.4907 25.2778C24.5155 25.3171 24.5403 25.3563 24.5658 25.3968C24.6137 25.4731 24.6611 25.5496 24.7081 25.6264C24.7639 25.7156 24.8239 25.802 24.8848 25.8878C24.9247 25.8878 24.9647 25.8878 25.0059 25.8878C25.1869 25.6543 25.3343 25.4185 25.4777 25.1603C25.6041 24.9524 25.753 24.7607 25.8975 24.5652C26.0499 24.3536 26.1944 24.1377 26.3379 23.92C26.5498 23.5991 26.7692 23.2859 26.9973 22.9761C27.2698 22.6001 27.5291 22.2146 27.791 21.8311C27.9247 21.6356 28.0584 21.4401 28.1921 21.2446C28.2256 21.1957 28.259 21.1468 28.2935 21.0964C28.523 20.7608 28.7536 20.426 28.9859 20.0923C29.0909 19.9403 29.1948 19.7877 29.2981 19.6344C29.3281 19.5902 29.3581 19.5459 29.389 19.5003C29.4476 19.4137 29.506 19.3269 29.5641 19.2399C29.5907 19.2006 29.6173 19.1614 29.6448 19.121C29.6683 19.086 29.6918 19.0511 29.716 19.0151C29.9211 18.7621 30.1505 18.7872 30.4471 18.7901Z" fill="#F1F1F1"/>
<path d="M44.9609 18.7905C45.7767 18.7867 46.5924 18.7877 47.4082 18.7913C47.377 19.0693 47.3273 19.2945 47.2067 19.5467C47.1784 19.6069 47.1501 19.6671 47.1209 19.7291C47.0908 19.7917 47.0608 19.8544 47.0298 19.919C46.8198 20.3661 46.6192 20.8092 46.4487 21.2728C46.3682 21.4833 46.2778 21.6886 46.1859 21.8943C45.9979 22.3163 45.826 22.7438 45.6561 23.1734C45.4387 23.7226 45.2092 24.264 44.966 24.8022C44.8874 24.9766 44.8135 25.152 44.7441 25.3304C44.5788 25.7543 44.387 26.1672 44.2013 26.5825C44.104 26.8006 44.0076 27.019 43.9116 27.2376C43.8795 27.3106 43.8473 27.3837 43.8142 27.459C43.7184 27.6804 43.6293 27.9043 43.5402 28.1285C43.4096 28.4546 43.2742 28.7787 43.1396 29.1032C43.1078 29.18 43.076 29.2568 43.0442 29.3336C42.9947 29.453 42.9453 29.5723 42.8958 29.6916C42.7817 29.9669 42.6678 30.2423 42.554 30.5178C42.0338 31.777 42.0338 31.777 41.7698 32.3992C41.5873 32.8296 41.4128 33.2629 41.24 33.6972C40.8358 34.7128 40.4137 35.7205 39.9812 36.7243C39.6581 37.4765 39.3513 38.2356 39.0478 38.9959C39 39.1155 38.952 39.235 38.904 39.3545C38.8769 39.422 38.8498 39.4894 38.8219 39.5589C38.8067 39.5961 38.7915 39.6333 38.7759 39.6716C38.6864 39.8925 38.6035 40.1142 38.5263 40.3396C38.5087 40.3891 38.4911 40.4386 38.473 40.4897C38.4388 40.5863 38.406 40.6834 38.3746 40.781C38.3587 40.8252 38.3428 40.8693 38.3264 40.9148C38.3132 40.954 38.3 40.9933 38.2863 41.0337C38.1538 41.1958 37.9793 41.2224 37.7812 41.2542C37.5816 41.27 37.3833 41.2712 37.1831 41.2703C37.0986 41.2704 37.0986 41.2704 37.0124 41.2706C36.8939 41.2707 36.7754 41.2705 36.6569 41.27C36.4761 41.2693 36.2953 41.27 36.1144 41.2707C35.9989 41.2707 35.8834 41.2705 35.7678 41.2703C35.7141 41.2705 35.6603 41.2708 35.605 41.271C35.3217 41.2689 35.0736 41.2611 34.8145 41.1331C34.7296 41.0195 34.7296 41.0195 34.6704 40.8706C34.646 40.8106 34.6215 40.7507 34.5964 40.689C34.5684 40.6158 34.5405 40.5425 34.5117 40.4671C34.4756 40.375 34.4394 40.2829 34.4032 40.1908C34.2987 39.9234 34.1965 39.6553 34.0949 39.3869C34.0317 39.2198 33.9681 39.0529 33.9045 38.886C33.6951 38.3354 33.4897 37.7839 33.2973 37.2272C33.1945 36.9308 33.0774 36.6427 32.9543 36.3544C32.8133 36.0151 32.6879 35.6698 32.5603 35.3253C32.4834 35.1179 32.4059 34.9108 32.3282 34.7038C32.3131 34.6633 32.2979 34.6228 32.2822 34.581C32.1067 34.1135 31.9276 33.6473 31.7452 33.1823C31.5834 32.7691 31.4228 32.3564 31.2762 31.9375C31.1154 31.4805 30.9336 31.0323 30.7524 30.583C30.6358 30.2938 30.523 30.0032 30.4123 29.7117C30.3504 29.5509 30.2874 29.3907 30.2235 29.2307C30.1946 29.1577 30.1946 29.1577 30.1651 29.0833C30.1273 28.988 30.0892 28.8927 30.0507 28.7976C29.8533 28.2979 29.8533 28.2979 29.8496 28.055C29.9258 27.9128 29.9968 27.8049 30.0956 27.6803C30.136 27.6266 30.136 27.6266 30.1773 27.5718C30.2369 27.4927 30.2968 27.4139 30.3572 27.3354C30.5344 27.1035 30.7061 26.8674 30.8789 26.6321C30.9515 26.5338 31.0241 26.4355 31.0967 26.3372C31.277 26.0925 31.4553 25.8464 31.632 25.599C31.6562 25.5652 31.6804 25.5314 31.7054 25.4966C31.8169 25.3404 31.9255 25.183 32.031 25.0227C32.0679 24.9668 32.1048 24.911 32.1428 24.8535C32.1739 24.805 32.2049 24.7565 32.237 24.7064C32.2683 24.6726 32.2997 24.6387 32.332 24.6038C32.412 24.6038 32.4919 24.6038 32.5742 24.6038C32.7593 25.0406 32.9159 25.4866 33.0698 25.9351C33.2236 26.3806 33.3894 26.8214 33.5558 27.2624C33.6325 27.4659 33.7088 27.6696 33.7852 27.8733C33.8154 27.9541 33.8457 28.0348 33.876 28.1155C33.9365 28.277 33.9971 28.4384 34.0576 28.5999C34.0726 28.6399 34.0876 28.6799 34.1031 28.721C34.1332 28.8015 34.1634 28.8821 34.1936 28.9626C34.2705 29.1679 34.3477 29.3731 34.4252 29.5782C34.6021 30.0471 34.7734 30.5173 34.9355 30.9915C35.0816 31.4148 35.2305 31.8363 35.3895 32.2549C35.5404 32.6528 35.6871 33.0522 35.8336 33.4517C35.8625 33.5305 35.8914 33.6094 35.9203 33.6882C36.1197 34.2313 36.316 34.7754 36.5098 35.3206C36.7286 34.9025 36.9054 34.4716 37.0812 34.034C37.1378 33.8936 37.1945 33.7533 37.2512 33.613C37.2929 33.5098 37.2929 33.5098 37.3354 33.4046C37.4388 33.1502 37.5446 32.8969 37.6505 32.6436C37.7543 32.394 37.8552 32.1432 37.9553 31.8921C37.976 31.8405 37.9966 31.7889 38.0179 31.7357C38.1532 31.3964 38.2857 31.0561 38.417 30.7152C38.5794 30.2943 38.7518 29.8782 38.9283 29.463C39.1405 28.9623 39.3418 28.4575 39.5423 27.9521C39.6234 27.7478 39.7052 27.5438 39.7869 27.3398C39.8159 27.2672 39.8449 27.1946 39.8748 27.1198C40.135 26.4694 40.135 26.4694 40.2249 26.2452C40.2993 26.0594 40.3729 25.8732 40.4463 25.687C40.4674 25.6336 40.4886 25.5801 40.5104 25.525C40.5516 25.4209 40.5927 25.3167 40.6335 25.2124C40.7423 24.9382 40.8614 24.6746 40.9959 24.4121C41.0746 24.2529 41.1367 24.0891 41.1984 23.9226C41.3953 23.4016 41.6095 22.8901 41.8378 22.3821C42.0096 21.9995 42.1734 21.6201 42.3107 21.2236C42.4368 20.8879 42.5822 20.5603 42.725 20.2315C42.8393 19.9681 42.9503 19.7043 43.0545 19.4367C43.0848 19.3627 43.0848 19.3627 43.1158 19.2871C43.1589 19.1816 43.1998 19.0751 43.2399 18.9684C43.3989 18.8024 43.5279 18.8113 43.7522 18.8037C43.8098 18.8033 43.8674 18.803 43.9268 18.8026C43.9875 18.8012 44.0482 18.7997 44.1108 18.7982C44.3941 18.7926 44.6775 18.7919 44.9609 18.7905Z" fill="#EFEFEF"/>
<path d="M26.6406 38.6895C26.6606 38.6895 26.6806 38.6895 26.7012 38.6895C26.7113 39.0591 26.721 39.4288 26.7304 39.7985C26.7336 39.9243 26.737 40.0502 26.7404 40.1761C26.7454 40.3565 26.7499 40.537 26.7544 40.7175C26.756 40.7742 26.7577 40.8308 26.7593 40.8892C26.7606 40.9413 26.7618 40.9934 26.763 41.0471C26.7642 41.0932 26.7655 41.1393 26.7667 41.1868C26.7617 41.293 26.7617 41.293 26.7012 41.3535C26.5233 41.3649 26.5233 41.3649 26.3379 41.3535C26.2979 41.3136 26.258 41.2736 26.2168 41.2324C26.3567 41.2324 26.4965 41.2324 26.6406 41.2324C26.6406 40.3932 26.6406 39.5541 26.6406 38.6895Z" fill="#FDFDFD"/>
<path d="M14.9551 19.0723C15.4746 19.0723 15.9941 19.0723 16.5293 19.0723C16.5293 19.0922 16.5293 19.1122 16.5293 19.1328C16.1297 19.1528 15.7301 19.1728 15.3184 19.1934C15.2534 19.4533 15.2701 19.5079 15.3789 19.7383C15.2186 19.5822 15.0795 19.4406 14.9551 19.2539C14.9551 19.194 14.9551 19.134 14.9551 19.0723Z" fill="#5A5A5A"/>
<path d="M15.0156 19.1328C15.1155 19.1328 15.2154 19.1328 15.3184 19.1328C15.3059 19.1765 15.2934 19.2202 15.2805 19.2653C15.2542 19.4626 15.2931 19.5617 15.3789 19.7383C15.1648 19.5462 15.0407 19.4254 15.0156 19.1328Z" fill="#878787"/>
<path d="M31.7871 25.6113C31.8363 25.7135 31.8363 25.7135 31.8477 25.8535C31.7168 26.0056 31.6043 26.1266 31.4238 26.2168C31.5068 25.9749 31.621 25.8051 31.7871 25.6113Z" fill="#3F3F3F"/>
</svg>
