<svg width="99" height="99" viewBox="0 0 99 99" fill="none" xmlns="http://www.w3.org/2000/svg">
<rect width="99" height="99" rx="49.5" fill="black"/>
<rect x="0.5" y="0.5" width="98" height="98" rx="49" stroke="white" stroke-opacity="0.5"/>
<path d="M47.7372 32.0031C47.8146 32.0031 47.892 32.0031 47.9717 32.0031C48.2275 32.0032 48.4833 32.0047 48.7391 32.0062C48.9164 32.0066 49.0937 32.0069 49.2711 32.007C49.7379 32.0078 50.2047 32.0097 50.6715 32.0118C51.1478 32.0138 51.6241 32.0147 52.1004 32.0157C53.035 32.0177 53.9697 32.021 54.9043 32.0251C54.9043 32.1527 54.9043 32.2803 54.9043 32.4118C54.8405 32.4118 54.7767 32.4118 54.7109 32.4118C54.6839 32.4685 54.6568 32.5252 54.629 32.5835C54.5251 32.7839 54.4126 32.9609 54.2823 33.1448C54.2361 33.2103 54.1898 33.2757 54.1422 33.3431C54.0678 33.4474 54.0678 33.4474 53.9919 33.5538C53.9402 33.6268 53.8884 33.6997 53.8352 33.7748C53.4604 34.3015 53.0794 34.8235 52.6955 35.3436C52.3053 35.8734 51.926 36.4106 51.5476 36.949C51.2136 37.424 50.8743 37.8947 50.5314 38.3633C50.3707 38.5851 50.214 38.8091 50.0582 39.0344C49.6702 39.5921 49.2638 40.1362 48.8594 40.6821C48.4743 41.2035 48.0973 41.7298 47.7258 42.2611C47.3858 42.7471 47.039 43.2252 46.6744 43.6931C46.1753 44.3343 45.7051 44.9935 45.2363 45.6569C45.0835 45.8727 44.9305 46.0882 44.7771 46.3035C44.7383 46.358 44.6995 46.4125 44.6595 46.4687C44.2547 47.035 43.8405 47.5943 43.4246 48.1526C43.3176 48.2968 43.2119 48.4421 43.1076 48.5883C42.9763 48.7658 42.8385 48.9385 42.6956 49.1068C41.9765 50.0101 41.9221 50.7425 41.9382 51.871C41.9375 52.0455 41.9364 52.22 41.935 52.3945C41.9322 52.8645 41.9347 53.3343 41.9382 53.8042C41.9409 54.2968 41.9387 54.7893 41.937 55.2818C41.9346 56.2127 41.9366 57.1436 41.9402 58.0746C41.9441 59.1352 41.943 60.1957 41.9415 61.2563C41.9386 63.4364 41.9419 65.6165 41.9492 67.7966C41.1836 67.7988 40.418 67.8005 39.6524 67.8016C39.297 67.8021 38.9415 67.8028 38.586 67.8039C38.2431 67.8049 37.9002 67.8055 37.5573 67.8058C37.4264 67.8059 37.2954 67.8063 37.1644 67.8068C36.9813 67.8075 36.7982 67.8076 36.6151 67.8076C36.4586 67.8079 36.4586 67.8079 36.2989 67.8082C36.0518 67.7966 36.0518 67.7966 35.8584 67.6999C35.71 66.6955 35.7505 65.656 35.7584 64.6434C35.7592 64.4884 35.76 64.3334 35.7607 64.1784C35.7623 63.8478 35.7642 63.5172 35.7663 63.1866C35.7695 62.6632 35.7714 62.1398 35.7732 61.6163C35.7738 61.4363 35.7744 61.2563 35.775 61.0763C35.7754 60.9412 35.7754 60.9412 35.7759 60.8034C35.78 59.587 35.7851 58.3707 35.7929 57.1544C35.7981 56.3305 35.8017 55.5067 35.8033 54.6828C35.8042 54.2479 35.806 53.8131 35.8099 53.3783C35.8135 52.9699 35.8149 52.5616 35.8146 52.1532C35.8149 52.0039 35.816 51.8546 35.818 51.7053C35.8288 50.8689 35.7935 50.2147 35.2783 49.5241C35.2204 49.4373 35.1624 49.3504 35.1027 49.2609C35.047 49.1862 34.9913 49.1116 34.9339 49.0347C34.8681 48.9458 34.8023 48.857 34.7345 48.7654C34.5637 48.5387 34.3925 48.3124 34.2209 48.0864C33.7266 47.434 33.2502 46.7848 32.8205 46.0871C32.6177 45.7723 32.3879 45.4837 32.1544 45.1913C31.9376 44.9108 31.7458 44.6164 31.5516 44.32C31.3252 43.9817 31.0779 43.6602 30.8311 43.3366C30.0411 42.294 29.2766 41.2356 28.5349 40.1583C28.2556 39.7526 27.9709 39.3538 27.6686 38.9649C27.5439 38.7927 27.5439 38.7927 27.4227 38.5838C27.1786 38.1867 26.8979 37.8188 26.6194 37.4452C25.8833 36.452 25.1615 35.4501 24.457 34.4342C24.2857 34.1927 24.1116 33.9541 23.9358 33.7159C23.8784 33.6376 23.821 33.5594 23.7618 33.4788C23.646 33.3211 23.5295 33.1638 23.4125 33.0069C23.3592 32.9343 23.306 32.8617 23.2511 32.7868C23.2028 32.7216 23.1544 32.6564 23.1046 32.5892C23 32.4118 23 32.4118 23 32.1218C24.0219 32.1038 25.0438 32.0901 26.0659 32.0817C26.5405 32.0777 27.015 32.0722 27.4896 32.0634C27.9478 32.055 28.406 32.0504 28.8643 32.0484C29.0389 32.047 29.2135 32.0442 29.388 32.04C30.7565 32.0085 30.7565 32.0085 31.1828 32.2905C31.3553 32.4848 31.4813 32.6673 31.6045 32.8952C31.6662 32.9765 31.7279 33.0577 31.7914 33.1414C31.8634 33.2469 31.8634 33.2469 31.9368 33.3544C31.9928 33.436 32.0487 33.5175 32.1064 33.6014C32.2911 33.8766 32.4735 34.1533 32.6559 34.43C32.996 34.9438 33.3579 35.4337 33.7333 35.9221C33.9108 36.1633 34.0618 36.4087 34.2148 36.6657C34.34 36.8422 34.4669 37.0174 34.5955 37.1914C34.8649 37.5586 35.1224 37.9303 35.375 38.3093C35.5585 38.5642 35.7438 38.8178 35.929 39.0714C37.5891 41.3515 37.5891 41.3515 38.2263 42.3627C38.2659 42.4253 38.3054 42.488 38.3462 42.5526C38.4226 42.6744 38.4983 42.7967 38.5734 42.9193C38.6624 43.0617 38.7583 43.1997 38.8555 43.3366C38.9193 43.3366 38.9831 43.3366 39.0488 43.3366C39.338 42.9638 39.5732 42.5873 39.8022 42.175C40.0041 41.8431 40.2419 41.537 40.4726 41.2248C40.716 40.8869 40.9466 40.5422 41.1758 40.1945C41.5142 39.6821 41.8645 39.1819 42.2287 38.6873C42.6639 38.0869 43.0779 37.4714 43.4961 36.8591C43.7096 36.5469 43.9231 36.2347 44.1366 35.9225C44.19 35.8444 44.2434 35.7663 44.2984 35.6858C44.665 35.15 45.0332 34.6154 45.404 34.0826C45.5717 33.8398 45.7376 33.5961 45.9025 33.3514C45.9504 33.2807 45.9983 33.21 46.0477 33.1372C46.1413 32.9989 46.2345 32.8603 46.3272 32.7214C46.3698 32.6588 46.4123 32.5961 46.4562 32.5315C46.4937 32.4757 46.5311 32.4199 46.5698 32.3625C46.8973 31.9584 47.2637 31.9986 47.7372 32.0031Z" fill="#F1F1F1"/>
<path d="M70.9125 32.0039C72.2151 31.9978 73.5177 31.9993 74.8203 32.0051C74.7705 32.449 74.6912 32.8086 74.4986 33.2113C74.4533 33.3074 74.4081 33.4035 74.3616 33.5025C74.3135 33.6026 74.2655 33.7027 74.2161 33.8058C73.8808 34.5197 73.5604 35.2272 73.2882 35.9675C73.1597 36.3036 73.0153 36.6315 72.8686 36.96C72.5684 37.6337 72.2939 38.3164 72.0226 39.0023C71.6755 39.8792 71.309 40.7438 70.9206 41.6032C70.7951 41.8817 70.6772 42.1618 70.5664 42.4465C70.3024 43.1234 69.9961 43.7828 69.6996 44.4459C69.5443 44.7941 69.3904 45.1429 69.2371 45.4919C69.1857 45.6086 69.1344 45.7252 69.0815 45.8454C68.9285 46.199 68.7863 46.5565 68.644 46.9145C68.4354 47.4352 68.2193 47.9528 68.0044 48.4709C67.9536 48.5935 67.9027 48.7162 67.8519 48.8389C67.773 49.0294 67.694 49.2199 67.6151 49.4104C67.4329 49.8501 67.251 50.2898 67.0693 50.7296C66.2386 52.7404 66.2386 52.7404 65.817 53.7339C65.5257 54.4211 65.247 55.1129 64.9711 55.8065C64.3256 57.4281 63.6517 59.0372 62.9611 60.6401C62.4452 61.8412 61.9553 63.0533 61.4706 64.2674C61.3943 64.4583 61.3177 64.6492 61.241 64.84C61.1977 64.9476 61.1545 65.0553 61.1099 65.1663C61.0857 65.2257 61.0614 65.2851 61.0364 65.3463C60.8936 65.6989 60.7612 66.0529 60.6379 66.4129C60.6098 66.492 60.5817 66.571 60.5528 66.6525C60.4982 66.8068 60.4458 66.9619 60.3957 67.1178C60.3703 67.1883 60.3449 67.2587 60.3187 67.3313C60.2976 67.394 60.2765 67.4567 60.2547 67.5212C60.0431 67.7801 59.7645 67.8226 59.4482 67.8733C59.1295 67.8986 58.8128 67.9004 58.4932 67.899C58.3582 67.8992 58.3582 67.8992 58.2206 67.8995C58.0314 67.8997 57.8421 67.8993 57.6529 67.8985C57.3641 67.8975 57.0755 67.8985 56.7867 67.8997C56.6022 67.8996 56.4177 67.8993 56.2333 67.899C56.1474 67.8994 56.0616 67.8997 55.9732 67.9001C55.5209 67.8967 55.1247 67.8843 54.7109 67.6799C54.5755 67.4985 54.5755 67.4985 54.4809 67.2607C54.4419 67.165 54.4029 67.0694 54.3627 66.9708C54.3181 66.8539 54.2735 66.7369 54.2275 66.6164C54.1699 66.4693 54.1121 66.3223 54.0542 66.1753C53.8875 65.7484 53.7242 65.3203 53.562 64.8916C53.4611 64.6249 53.3595 64.3583 53.2579 64.0918C52.9236 63.2127 52.5956 62.3321 52.2884 61.4431C52.1243 60.9699 51.9373 60.5098 51.7407 60.0494C51.5156 59.5076 51.3154 58.9562 51.1116 58.4062C50.9888 58.0751 50.865 57.7444 50.741 57.4137C50.7168 57.3491 50.6925 57.2844 50.6676 57.2178C50.3873 56.4712 50.1013 55.7268 49.8101 54.9843C49.5517 54.3246 49.2952 53.6656 49.0612 52.9967C48.8044 52.2669 48.514 51.5513 48.2247 50.8339C48.0386 50.372 47.8585 49.9081 47.6816 49.4426C47.5829 49.1858 47.4823 48.93 47.3803 48.6744C47.3341 48.558 47.3341 48.558 47.287 48.4392C47.2266 48.2869 47.1657 48.1348 47.1044 47.9829C46.789 47.185 46.789 47.185 46.7832 46.7971C46.9049 46.5701 47.0183 46.3979 47.176 46.1989C47.2406 46.1131 47.2406 46.1131 47.3064 46.0256C47.4016 45.8993 47.4973 45.7735 47.5937 45.6481C47.8767 45.2778 48.1508 44.9008 48.4268 44.5251C48.5427 44.3682 48.6586 44.2112 48.7746 44.0542C49.0625 43.6634 49.3472 43.2706 49.6292 42.8755C49.6679 42.8216 49.7066 42.7676 49.7465 42.712C49.9246 42.4626 50.0979 42.2112 50.2663 41.9552C50.3253 41.8661 50.3842 41.777 50.4449 41.6852C50.4945 41.6077 50.5441 41.5301 50.5953 41.4503C50.6454 41.3962 50.6955 41.3421 50.7471 41.2864C50.8747 41.2864 51.0023 41.2864 51.1338 41.2864C51.4293 41.9838 51.6794 42.696 51.9252 43.4121C52.1707 44.1235 52.4354 44.8275 52.7011 45.5315C52.8237 45.8565 52.9455 46.1818 53.0674 46.5071C53.1157 46.636 53.1641 46.7649 53.2124 46.8938C53.3091 47.1516 53.4058 47.4094 53.5024 47.6672C53.5264 47.7311 53.5503 47.7949 53.575 47.8607C53.6232 47.9892 53.6714 48.1178 53.7195 48.2464C53.8424 48.5742 53.9656 48.9019 54.0893 49.2294C54.3718 49.978 54.6454 50.7289 54.9043 51.4861C55.1376 52.162 55.3753 52.835 55.6292 53.5035C55.8702 54.1388 56.1044 54.7766 56.3383 55.4145C56.3844 55.5404 56.4306 55.6662 56.4768 55.7921C56.7952 56.6593 57.1086 57.5282 57.418 58.3987C57.7673 57.7312 58.0497 57.043 58.3304 56.3442C58.4208 56.1201 58.5114 55.8961 58.6019 55.672C58.6684 55.5073 58.6684 55.5073 58.7363 55.3392C58.9014 54.9331 59.0704 54.5287 59.2395 54.1242C59.4053 53.7256 59.5663 53.3252 59.7262 52.9242C59.7592 52.8418 59.7921 52.7593 59.8261 52.6744C60.0422 52.1326 60.2537 51.5893 60.4634 51.045C60.7227 50.3728 60.998 49.7084 61.2798 49.0454C61.6187 48.246 61.94 47.4399 62.2603 46.6329C62.3898 46.3067 62.5203 45.9809 62.6508 45.6551C62.6971 45.5392 62.7435 45.4233 62.7912 45.3039C63.2067 44.2653 63.2067 44.2653 63.3502 43.9073C63.4689 43.6106 63.5864 43.3134 63.7037 43.016C63.7374 42.9307 63.7712 42.8453 63.8061 42.7574C63.8719 42.5911 63.9375 42.4247 64.0027 42.2582C64.1764 41.8204 64.3666 41.3994 64.5813 40.9803C64.707 40.726 64.8061 40.4645 64.9046 40.1987C65.2191 39.3668 65.5612 38.55 65.9256 37.7388C66.2 37.128 66.4615 36.5221 66.6807 35.8889C66.882 35.3529 67.1142 34.8298 67.3423 34.3047C67.5248 33.8841 67.702 33.463 67.8684 33.0357C67.9169 32.9175 67.9169 32.9175 67.9663 32.7968C68.0351 32.6283 68.1004 32.4584 68.1645 32.288C68.4183 32.0229 68.6243 32.0371 68.9825 32.0249C69.0745 32.0244 69.1665 32.0238 69.2612 32.0232C69.3582 32.0209 69.4551 32.0185 69.555 32.0161C70.0075 32.0071 70.46 32.0061 70.9125 32.0039Z" fill="#EFEFEF"/>
<path d="M42.5391 61.7783C42.571 61.7783 42.6029 61.7783 42.6357 61.7783C42.6519 62.3686 42.6674 62.9589 42.6824 63.5492C42.6875 63.7501 42.6929 63.9511 42.6984 64.1521C42.7063 64.4403 42.7136 64.7285 42.7207 65.0167C42.7233 65.1071 42.7259 65.1976 42.7286 65.2908C42.7306 65.374 42.7325 65.4572 42.7345 65.543C42.7365 65.6166 42.7384 65.6902 42.7404 65.7661C42.7324 65.9355 42.7324 65.9355 42.6357 66.0322C42.3517 66.0504 42.3517 66.0504 42.0557 66.0322C41.9919 65.9684 41.928 65.9046 41.8623 65.8389C42.0856 65.8389 42.309 65.8389 42.5391 65.8389C42.5391 64.4989 42.5391 63.1589 42.5391 61.7783Z" fill="#FDFDFD"/>
<path d="M23.8799 30.4541C24.7094 30.4541 25.5389 30.4541 26.3936 30.4541C26.3936 30.486 26.3936 30.5179 26.3936 30.5508C25.7555 30.5827 25.1174 30.6146 24.46 30.6475C24.3562 31.0626 24.3829 31.1497 24.5566 31.5176C24.3007 31.2684 24.0786 31.0423 23.8799 30.7441C23.8799 30.6484 23.8799 30.5527 23.8799 30.4541Z" fill="#5A5A5A"/>
<path d="M23.9766 30.5508C24.1361 30.5508 24.2956 30.5508 24.46 30.5508C24.44 30.6206 24.4201 30.6904 24.3995 30.7623C24.3575 31.0773 24.4197 31.2356 24.5566 31.5176C24.2148 31.2108 24.0166 31.018 23.9766 30.5508Z" fill="#878787"/>
<path d="M50.7568 40.8955C50.8354 41.0587 50.8354 41.0587 50.8535 41.2822C50.6446 41.5251 50.4649 41.7182 50.1768 41.8623C50.3092 41.4761 50.4917 41.2049 50.7568 40.8955Z" fill="#3F3F3F"/>
</svg>
