<svg width="24" height="46" viewBox="0 0 24 46" fill="none" xmlns="http://www.w3.org/2000/svg">
<path d="M1.5681e-05 1.99664L1.5681e-05 43.1391C1.5681e-05 44.2351 0.894442 45.1357 1.99031 45.1357H21.579C21.705 45.1357 21.8247 45.1231 21.9444 45.0979C22.7443 44.9531 23.3804 44.3106 23.5316 43.5107C23.5567 43.3911 23.5693 43.2651 23.5693 43.1391L23.5693 1.99664C23.5693 0.900687 22.6749 0 21.579 0L1.9904 0C1.85181 0 1.71958 0.0126063 1.58735 0.0440779C0.818893 0.201524 0.201626 0.81879 0.0441796 1.58724C0.0441796 1.59359 0.0441796 1.59359 0.0441796 1.59359C0.0126199 1.72582 1.5681e-05 1.85806 1.5681e-05 1.99664Z" fill="#2D2D33"/>
<path opacity="0.3" d="M22.0327 5.82178L22.0327 33.5863V33.6304V38.2958H1.53624V33.6304V33.5863L1.53624 5.82178L22.0327 5.82178Z" fill="#F4F4F5"/>
<path d="M1.53624 5.82178L22.0327 5.82178L22.0327 38.2958H1.53624L1.53624 5.82178Z" fill="url(#paint0_linear_506_23)"/>
<path d="M12.2839 20.0111H19.2495V19.394H10.5179L12.2839 20.0111Z" fill="#F4F4F5"/>
<path d="M5.39619 22.5678H19.2495V21.9507H3.63016L5.39619 22.5678Z" fill="#F4F4F5"/>
<path opacity="0.1" d="M23.5253 1.59359C23.5253 1.59359 23.5253 1.59359 23.5253 1.58724C23.3678 0.81879 22.7505 0.201524 21.9821 0.0440779C21.8499 0.0126063 21.7175 0 21.579 0L11.7847 0L11.7847 45.1357H21.579C22.6749 45.1357 23.5693 44.2351 23.5693 43.1391L23.5693 1.99664C23.5693 1.85806 23.5567 1.72582 23.5253 1.59359Z" fill="#F4F4F5"/>
<defs>
<linearGradient id="paint0_linear_506_23" x1="11.7844" y1="38.2958" x2="11.7844" y2="5.82179" gradientUnits="userSpaceOnUse">
<stop offset="0.1304" stop-color="#A9DBE5"/>
<stop offset="1" stop-color="#A9DBE5"/>
</linearGradient>
</defs>
</svg>
