<svg id="visual" viewBox="0 0 900 675" width="900" height="675" xmlns="http://www.w3.org/2000/svg" xmlns:xlink="http://www.w3.org/1999/xlink" version="1.1"><g stroke-width="1" stroke-linejoin="bevel"><path d="M505 354.7L481 255.3L415 262.3Z" fill="#070707" stroke="#070707"></path><path d="M415 262.3L381 366.7L505 354.7Z" fill="#050505" stroke="#050505"></path><path d="M481 255.3L425 202.9L415 262.3Z" fill="#090909" stroke="#090909"></path><path d="M415 262.3L324 255.3L381 366.7Z" fill="#0e0e0e" stroke="#0e0e0e"></path><path d="M600 249.3L524 219.9L481 255.3Z" fill="#090909" stroke="#090909"></path><path d="M481 255.3L524 219.9L425 202.9Z" fill="#000000" stroke="#000000"></path><path d="M381 366.7L401 446.1L505 354.7Z" fill="#000000" stroke="#000000"></path><path d="M425 202.9L324 255.3L415 262.3Z" fill="#050505" stroke="#050505"></path><path d="M381 366.7L319 468.1L401 446.1Z" fill="#000000" stroke="#000000"></path><path d="M505 354.7L600 249.3L481 255.3Z" fill="#111111" stroke="#111111"></path><path d="M521 504.1L607 363.7L505 354.7Z" fill="#111111" stroke="#111111"></path><path d="M505 354.7L607 363.7L600 249.3Z" fill="#050505" stroke="#050505"></path><path d="M324 255.3L287 420.7L381 366.7Z" fill="#040404" stroke="#040404"></path><path d="M671 279.3L614 196.9L600 249.3Z" fill="#0d0d0d" stroke="#0d0d0d"></path><path d="M600 249.3L614 196.9L524 219.9Z" fill="#111111" stroke="#111111"></path><path d="M524 219.9L462 106.4L425 202.9Z" fill="#070707" stroke="#070707"></path><path d="M476 609.6L521 504.1L401 446.1Z" fill="#040404" stroke="#040404"></path><path d="M401 446.1L521 504.1L505 354.7Z" fill="#040404" stroke="#040404"></path><path d="M287 420.7L319 468.1L381 366.7Z" fill="#0e0e0e" stroke="#0e0e0e"></path><path d="M573 130.4L462 106.4L524 219.9Z" fill="#111111" stroke="#111111"></path><path d="M425 202.9L281 196.9L324 255.3Z" fill="#000000" stroke="#000000"></path><path d="M324 106.4L281 196.9L425 202.9Z" fill="#090909" stroke="#090909"></path><path d="M324 255.3L176 374.7L287 420.7Z" fill="#050505" stroke="#050505"></path><path d="M614 196.9L573 130.4L524 219.9Z" fill="#0d0d0d" stroke="#0d0d0d"></path><path d="M697 398.7L671 279.3L607 363.7Z" fill="#040404" stroke="#040404"></path><path d="M607 363.7L671 279.3L600 249.3Z" fill="#070707" stroke="#070707"></path><path d="M614 196.9L686 128.4L573 130.4Z" fill="#090909" stroke="#090909"></path><path d="M427 0L434 87.4L522 0Z" fill="#070707" stroke="#070707"></path><path d="M462 106.4L434 87.4L425 202.9Z" fill="#0b0b0b" stroke="#0b0b0b"></path><path d="M434 87.4L324 106.4L425 202.9Z" fill="#101010" stroke="#101010"></path><path d="M521 504.1L608 510.1L607 363.7Z" fill="#050505" stroke="#050505"></path><path d="M196 72.4L217 221.9L281 196.9Z" fill="#000000" stroke="#000000"></path><path d="M281 196.9L217 221.9L324 255.3Z" fill="#020202" stroke="#020202"></path><path d="M608 510.1L697 398.7L607 363.7Z" fill="#040404" stroke="#040404"></path><path d="M160 512.1L310 542.6L319 468.1Z" fill="#0b0b0b" stroke="#0b0b0b"></path><path d="M319 468.1L310 542.6L401 446.1Z" fill="#040404" stroke="#040404"></path><path d="M521 504.1L629 548.6L608 510.1Z" fill="#090909" stroke="#090909"></path><path d="M160 512.1L319 468.1L287 420.7Z" fill="#090909" stroke="#090909"></path><path d="M162 321.3L176 374.7L324 255.3Z" fill="#040404" stroke="#040404"></path><path d="M671 279.3L730 221.9L614 196.9Z" fill="#050505" stroke="#050505"></path><path d="M771 324.3L730 221.9L671 279.3Z" fill="#111111" stroke="#111111"></path><path d="M217 221.9L162 321.3L324 255.3Z" fill="#0d0d0d" stroke="#0d0d0d"></path><path d="M608 510.1L718 471.1L697 398.7Z" fill="#050505" stroke="#050505"></path><path d="M476 609.6L629 548.6L521 504.1Z" fill="#000000" stroke="#000000"></path><path d="M372 602.6L476 609.6L401 446.1Z" fill="#0b0b0b" stroke="#0b0b0b"></path><path d="M730 221.9L686 128.4L614 196.9Z" fill="#0e0e0e" stroke="#0e0e0e"></path><path d="M522 0L434 87.4L462 106.4Z" fill="#0b0b0b" stroke="#0b0b0b"></path><path d="M310 542.6L372 602.6L401 446.1Z" fill="#040404" stroke="#040404"></path><path d="M629 548.6L718 471.1L608 510.1Z" fill="#0b0b0b" stroke="#0b0b0b"></path><path d="M697 398.7L771 324.3L671 279.3Z" fill="#050505" stroke="#050505"></path><path d="M522 0L462 106.4L573 130.4Z" fill="#020202" stroke="#020202"></path><path d="M434 87.4L427 0L324 106.4Z" fill="#090909" stroke="#090909"></path><path d="M803 378.7L771 324.3L697 398.7Z" fill="#000000" stroke="#000000"></path><path d="M116 166.9L138 274.3L217 221.9Z" fill="#000000" stroke="#000000"></path><path d="M217 221.9L138 274.3L162 321.3Z" fill="#070707" stroke="#070707"></path><path d="M162 321.3L74 385.7L176 374.7Z" fill="#101010" stroke="#101010"></path><path d="M196 72.4L281 196.9L324 106.4Z" fill="#090909" stroke="#090909"></path><path d="M587 0L522 0L573 130.4Z" fill="#040404" stroke="#040404"></path><path d="M686 128.4L587 0L573 130.4Z" fill="#090909" stroke="#090909"></path><path d="M629 548.6L709 553.6L718 471.1Z" fill="#020202" stroke="#020202"></path><path d="M718 471.1L803 378.7L697 398.7Z" fill="#101010" stroke="#101010"></path><path d="M618 675L709 553.6L629 548.6Z" fill="#020202" stroke="#020202"></path><path d="M277 0L196 72.4L324 106.4Z" fill="#090909" stroke="#090909"></path><path d="M74 385.7L160 512.1L176 374.7Z" fill="#0b0b0b" stroke="#0b0b0b"></path><path d="M176 374.7L160 512.1L287 420.7Z" fill="#070707" stroke="#070707"></path><path d="M335 675L364 675L372 602.6Z" fill="#101010" stroke="#101010"></path><path d="M790 491.1L803 378.7L718 471.1Z" fill="#111111" stroke="#111111"></path><path d="M771 324.3L823 224.9L730 221.9Z" fill="#0d0d0d" stroke="#0d0d0d"></path><path d="M427 0L277 0L324 106.4Z" fill="#101010" stroke="#101010"></path><path d="M364 675L522 675L476 609.6Z" fill="#0e0e0e" stroke="#0e0e0e"></path><path d="M476 609.6L522 675L629 548.6Z" fill="#070707" stroke="#070707"></path><path d="M364 675L476 609.6L372 602.6Z" fill="#040404" stroke="#040404"></path><path d="M196 72.4L116 166.9L217 221.9Z" fill="#0d0d0d" stroke="#0d0d0d"></path><path d="M138 274.3L74 385.7L162 321.3Z" fill="#101010" stroke="#101010"></path><path d="M335 675L372 602.6L310 542.6Z" fill="#111111" stroke="#111111"></path><path d="M160 512.1L176 563.6L310 542.6Z" fill="#0e0e0e" stroke="#0e0e0e"></path><path d="M235 675L335 675L310 542.6Z" fill="#050505" stroke="#050505"></path><path d="M772 547.6L790 491.1L718 471.1Z" fill="#000000" stroke="#000000"></path><path d="M900 280.3L771 324.3L803 378.7Z" fill="#000000" stroke="#000000"></path><path d="M900 280.3L823 224.9L771 324.3Z" fill="#101010" stroke="#101010"></path><path d="M730 221.9L812 91.4L686 128.4Z" fill="#000000" stroke="#000000"></path><path d="M686 128.4L677 0L587 0Z" fill="#0b0b0b" stroke="#0b0b0b"></path><path d="M782 0L677 0L686 128.4Z" fill="#101010" stroke="#101010"></path><path d="M0 314.3L74 385.7L138 274.3Z" fill="#101010" stroke="#101010"></path><path d="M160 512.1L108 561.6L176 563.6Z" fill="#0b0b0b" stroke="#0b0b0b"></path><path d="M709 553.6L772 547.6L718 471.1Z" fill="#0e0e0e" stroke="#0e0e0e"></path><path d="M713 675L772 547.6L709 553.6Z" fill="#0d0d0d" stroke="#0d0d0d"></path><path d="M522 675L618 675L629 548.6Z" fill="#020202" stroke="#020202"></path><path d="M277 0L192 0L196 72.4Z" fill="#040404" stroke="#040404"></path><path d="M196 72.4L101 77.4L116 166.9Z" fill="#111111" stroke="#111111"></path><path d="M74 385.7L95 514.1L160 512.1Z" fill="#070707" stroke="#070707"></path><path d="M176 563.6L235 675L310 542.6Z" fill="#0e0e0e" stroke="#0e0e0e"></path><path d="M128 675L235 675L176 563.6Z" fill="#111111" stroke="#111111"></path><path d="M823 224.9L812 91.4L730 221.9Z" fill="#070707" stroke="#070707"></path><path d="M192 0L101 77.4L196 72.4Z" fill="#000000" stroke="#000000"></path><path d="M0 159.9L0 314.3L138 274.3Z" fill="#101010" stroke="#101010"></path><path d="M95 514.1L108 561.6L160 512.1Z" fill="#040404" stroke="#040404"></path><path d="M618 675L713 675L709 553.6Z" fill="#090909" stroke="#090909"></path><path d="M900 362.7L900 280.3L803 378.7Z" fill="#111111" stroke="#111111"></path><path d="M823 224.9L900 187.9L812 91.4Z" fill="#0d0d0d" stroke="#0d0d0d"></path><path d="M900 362.7L803 378.7L900 442.1Z" fill="#040404" stroke="#040404"></path><path d="M803 378.7L790 491.1L900 442.1Z" fill="#111111" stroke="#111111"></path><path d="M900 442.1L790 491.1L900 573.6Z" fill="#040404" stroke="#040404"></path><path d="M0 159.9L138 274.3L116 166.9Z" fill="#070707" stroke="#070707"></path><path d="M74 385.7L0 456.1L95 514.1Z" fill="#111111" stroke="#111111"></path><path d="M95 514.1L0 542.6L108 561.6Z" fill="#090909" stroke="#090909"></path><path d="M900 0L782 0L812 91.4Z" fill="#111111" stroke="#111111"></path><path d="M812 91.4L782 0L686 128.4Z" fill="#0d0d0d" stroke="#0d0d0d"></path><path d="M0 314.3L0 392.7L74 385.7Z" fill="#000000" stroke="#000000"></path><path d="M900 280.3L900 187.9L823 224.9Z" fill="#101010" stroke="#101010"></path><path d="M900 573.6L790 491.1L772 547.6Z" fill="#0b0b0b" stroke="#0b0b0b"></path><path d="M0 392.7L0 456.1L74 385.7Z" fill="#000000" stroke="#000000"></path><path d="M101 77.4L0 159.9L116 166.9Z" fill="#040404" stroke="#040404"></path><path d="M0 70.4L0 159.9L101 77.4Z" fill="#0b0b0b" stroke="#0b0b0b"></path><path d="M108 561.6L128 675L176 563.6Z" fill="#020202" stroke="#020202"></path><path d="M0 675L128 675L108 561.6Z" fill="#000000" stroke="#000000"></path><path d="M192 0L80 0L101 77.4Z" fill="#070707" stroke="#070707"></path><path d="M900 187.9L900 85.4L812 91.4Z" fill="#0b0b0b" stroke="#0b0b0b"></path><path d="M0 456.1L0 542.6L95 514.1Z" fill="#050505" stroke="#050505"></path><path d="M80 0L0 70.4L101 77.4Z" fill="#0d0d0d" stroke="#0d0d0d"></path><path d="M826 675L900 573.6L772 547.6Z" fill="#111111" stroke="#111111"></path><path d="M713 675L826 675L772 547.6Z" fill="#070707" stroke="#070707"></path><path d="M900 85.4L900 0L812 91.4Z" fill="#020202" stroke="#020202"></path><path d="M80 0L0 0L0 70.4Z" fill="#101010" stroke="#101010"></path><path d="M826 675L900 675L900 573.6Z" fill="#000000" stroke="#000000"></path><path d="M0 542.6L0 675L108 561.6Z" fill="#111111" stroke="#111111"></path></g></svg>